<svg version="1.1" xmlns="http://www.w3.org/2000/svg" viewBox="0 0 493.4682631784678 364.3875240359455" width="986.9365263569356" height="728.775048071891">
  <!-- svg-source:excalidraw -->
  
  <defs>
    <style class="style-fonts">
      @font-face {
        font-family: "Virgil";
        src: url("https://excalidraw.com/Virgil.woff2");
      }
      @font-face {
        font-family: "Cascadia";
        src: url("https://excalidraw.com/Cascadia.woff2");
      }
      @font-face {
        font-family: "Assistant";
        src: url("https://excalidraw.com/Assistant-Regular.woff2");
      }
    </style>
    
  </defs>
  <rect x="0" y="0" width="493.4682631784678" height="364.3875240359455" fill="#ffffff"></rect><g stroke-linecap="round"><g transform="translate(17.237794428467794 320.2324947390705) rotate(0 2.842170943040401e-14 -154.912109375)"><path d="M-0.52 0.62 C-0.46 -51.09, -0.33 -258.63, -0.09 -310.23 M1.41 -0.11 C1.34 -51.65, -0.96 -257.12, -1.09 -308.91" stroke="#1e1e1e" stroke-width="2" fill="none"></path></g><g transform="translate(17.237794428467794 320.2324947390705) rotate(0 2.842170943040401e-14 -154.912109375)"><path d="M7.63 -285.48 C6.36 -291.84, 2.35 -296.34, -1.09 -308.91 M7.63 -285.48 C4.64 -294.17, 2.18 -302.54, -1.09 -308.91" stroke="#1e1e1e" stroke-width="2" fill="none"></path></g><g transform="translate(17.237794428467794 320.2324947390705) rotate(0 2.842170943040401e-14 -154.912109375)"><path d="M-9.47 -285.36 C-6.24 -291.68, -5.74 -296.2, -1.09 -308.91 M-9.47 -285.36 C-6.12 -294.26, -2.23 -302.67, -1.09 -308.91" stroke="#1e1e1e" stroke-width="2" fill="none"></path></g></g><mask></mask><g stroke-linecap="round"><g transform="translate(10.935848497021937 305.2322874672709) rotate(0 205.10409796572293 0)"><path d="M0.34 -1.03 C68.64 -1.2, 341.13 -1.05, 409.45 -0.68 M-0.94 1.04 C67.78 0.99, 343.35 0.77, 411.76 0.5" stroke="#1e1e1e" stroke-width="2" fill="none"></path></g><g transform="translate(10.935848497021937 305.2322874672709) rotate(0 205.10409796572293 0)"><path d="M388.29 9.1 C392.9 5.44, 399.86 4.48, 411.76 0.5 M388.29 9.1 C397.98 6.04, 407.9 1.52, 411.76 0.5" stroke="#1e1e1e" stroke-width="2" fill="none"></path></g><g transform="translate(10.935848497021937 305.2322874672709) rotate(0 205.10409796572293 0)"><path d="M388.25 -8 C392.92 -7.03, 399.89 -3.35, 411.76 0.5 M388.25 -8 C397.8 -4.27, 407.74 -2.01, 411.76 0.5" stroke="#1e1e1e" stroke-width="2" fill="none"></path></g></g><mask></mask><g stroke-linecap="round"><g transform="translate(79.1088881784678 39.58015098907049) rotate(0 0 136.458984375)"><path d="M-0.71 -0.22 C-0.87 45.3, -0.45 228.51, -0.33 274.03" stroke="#1e1e1e" stroke-width="2.5" fill="none" stroke-dasharray="8 10"></path></g></g><mask></mask><g stroke-linecap="round"><g transform="translate(148.4310384798892 41.71666496992111) rotate(0 0 136.458984375)"><path d="M1.12 -0.12 C1.3 45.55, 0.52 228.47, 0.19 273.79" stroke="#1e1e1e" stroke-width="2.5" fill="none" stroke-dasharray="8 10"></path></g></g><mask></mask><g stroke-linecap="round"><g transform="translate(221.7708822298892 39.78307121992111) rotate(0 0 136.458984375)"><path d="M-1.12 -0.45 C-1.08 45.14, 1 227.29, 1.13 272.69" stroke="#1e1e1e" stroke-width="2.5" fill="none" stroke-dasharray="8 10"></path></g></g><mask></mask><g stroke-linecap="round"><g transform="translate(290.4466634798892 40.27916496992111) rotate(0 0 136.458984375)"><path d="M-0.96 -0.99 C-0.86 44.49, 0.18 227.04, 0.38 272.51" stroke="#1e1e1e" stroke-width="2.5" fill="none" stroke-dasharray="8 10"></path></g></g><mask></mask><g transform="translate(434.5815444284678 293.6084713015705) rotate(0 16 10)"><text x="0" y="14.016" font-family="Virgil, Segoe UI Emoji" font-size="16px" fill="#1e1e1e" text-anchor="start" style="white-space: pre;" direction="ltr" dominant-baseline="alphabetic">时间</text></g><g transform="translate(172.2651381784678 334.3875240359455) rotate(0 66.1679916381836 10)"><text x="0" y="14.016" font-family="Virgil, Segoe UI Emoji" font-size="16px" fill="#1e1e1e" text-anchor="start" style="white-space: pre;" direction="ltr" dominant-baseline="alphabetic">单核，I/O 密集型</text></g><g stroke-linecap="round"><g transform="translate(360.69519362650834 40.56881225183588) rotate(0 0 136.458984375)"><path d="M1.19 0.93 C1.13 46.07, -0.97 226.24, -1 271.74" stroke="#1e1e1e" stroke-width="2.5" fill="none" stroke-dasharray="8 10"></path></g></g><mask></mask><g stroke-linecap="round" transform="translate(17.436036615967794 241.3157466921955) rotate(0 30.22265625 15.447265625)"><path d="M7.72 0 C20.9 -3.99, 40.15 -3.37, 52.72 0 C60.17 -0.82, 62.67 5.73, 60.45 7.72 C59.57 13.8, 59.61 19.68, 60.45 23.17 C63.3 29.43, 59.75 31.65, 52.72 30.89 C41.32 29.09, 29.53 33.32, 7.72 30.89 C2.35 33.57, -0.52 25.43, 0 23.17 C0.31 16.4, 0.86 11.23, 0 7.72 C0.26 0.31, -0.25 1.24, 7.72 0" stroke="none" stroke-width="0" fill="#ffc9c9"></path><path d="M7.72 0 C23.8 1.73, 40.87 1.02, 52.72 0 M52.72 0 C56.43 0.07, 60.73 1.41, 60.45 7.72 M60.45 7.72 C60.67 12.35, 58.97 19.08, 60.45 23.17 M60.45 23.17 C61.58 27.68, 57.67 31.1, 52.72 30.89 M52.72 30.89 C38.13 29.78, 27.75 30.7, 7.72 30.89 M7.72 30.89 C1.69 31.41, -1.85 28.21, 0 23.17 M0 23.17 C-1.05 18, -1.19 12.11, 0 7.72 M0 7.72 C1.55 2.81, 3.32 1.91, 7.72 0" stroke="#1e1e1e" stroke-width="2.5" fill="none" stroke-dasharray="8 10"></path></g><g stroke-linecap="round" transform="translate(77.9829116159678 240.5344966921955) rotate(0 33.5859375 16.240234375)"><path d="M8.12 0 C31.84 -1.77, 50.94 0, 59.05 0 C66.69 3.16, 68.98 3.86, 67.17 8.12 C66.09 15.24, 69.39 20.86, 67.17 24.36 C69.05 30.53, 63.7 31.09, 59.05 32.48 C43.66 34.04, 24.27 34.61, 8.12 32.48 C2.18 29.59, 0.9 30.34, 0 24.36 C0.91 17.69, 0.17 13.18, 0 8.12 C-2.83 3.95, 0.98 -2.57, 8.12 0" stroke="none" stroke-width="0" fill="#b2f2bb"></path><path d="M8.12 0 C21.97 0.39, 31.6 -0.31, 59.05 0 M59.05 0 C64.75 -1.16, 67.53 2.23, 67.17 8.12 M67.17 8.12 C65.69 14.54, 68.12 17.19, 67.17 24.36 M67.17 24.36 C66.97 29.98, 64.1 33.84, 59.05 32.48 M59.05 32.48 C44.18 32, 27.63 32.71, 8.12 32.48 M8.12 32.48 C0.86 32.37, 0.65 28.49, 0 24.36 M0 24.36 C-1.24 17.69, 1.38 12.88, 0 8.12 M0 8.12 C0.74 4.62, 3.14 0.56, 8.12 0" stroke="#1e1e1e" stroke-width="2.5" fill="none" stroke-dasharray="8 10"></path></g><g stroke-linecap="round" transform="translate(146.4887709909678 241.5872310671955) rotate(0 36.7421875 15.359375)"><path d="M7.68 0 C22.25 -0.07, 34.44 3.91, 65.8 0 C72.74 1.15, 75.82 1.31, 73.48 7.68 C75.59 13.51, 74.83 18.22, 73.48 23.04 C72.72 26.77, 72.34 31.86, 65.8 30.72 C51.58 34, 37.27 28.44, 7.68 30.72 C3.46 31.28, -0.44 28.62, 0 23.04 C0.11 17.66, -2.26 16.71, 0 7.68 C-1.72 -0.01, -0.71 -1.46, 7.68 0" stroke="none" stroke-width="0" fill="#ffc9c9"></path><path d="M7.68 0 C27.98 -0.16, 51.45 -1.39, 65.8 0 M65.8 0 C71.28 -0.48, 73.39 2.9, 73.48 7.68 M73.48 7.68 C74.21 11.52, 73.19 16.5, 73.48 23.04 M73.48 23.04 C73.12 29.51, 70.92 28.81, 65.8 30.72 M65.8 30.72 C50.71 31.17, 35.54 30.55, 7.68 30.72 M7.68 30.72 C3.21 29.44, 1.18 26.68, 0 23.04 M0 23.04 C1.32 18.64, 0.7 15.35, 0 7.68 M0 7.68 C0.44 3.12, 4.52 -0.72, 7.68 0" stroke="#1e1e1e" stroke-width="2.5" fill="none" stroke-dasharray="8 10"></path></g><g stroke-linecap="round" transform="translate(81.9301772409678 194.129101184383) rotate(0 34.47265625 14.376953125)"><path d="M7.19 0 C24.07 -0.42, 42.24 0.92, 61.76 0 C65.28 2.5, 67.09 0.34, 68.95 7.19 C69.57 12.9, 70.89 16.33, 68.95 21.57 C67.11 25.95, 69.57 30.34, 61.76 28.75 C41.43 26.3, 27.65 30.26, 7.19 28.75 C1.04 25.4, 0.74 23.76, 0 21.57 C1.57 16.62, -0.84 12.61, 0 7.19 C-2.75 3.91, 0.74 -2.13, 7.19 0" stroke="none" stroke-width="0" fill="#ffc9c9"></path><path d="M7.19 0 C25.34 0.77, 43.63 -1.94, 61.76 0 M61.76 0 C65.38 1.58, 67.33 1.79, 68.95 7.19 M68.95 7.19 C68.89 11.72, 68.68 18.09, 68.95 21.57 M68.95 21.57 C67.46 24.55, 66.3 28.94, 61.76 28.75 M61.76 28.75 C50.15 27.52, 36.37 29.77, 7.19 28.75 M7.19 28.75 C1.57 30.2, 0.32 27.92, 0 21.57 M0 21.57 C-0.87 17.15, 1.01 10.71, 0 7.19 M0 7.19 C0.64 2.52, 2.05 1.45, 7.19 0" stroke="#1e1e1e" stroke-width="2.5" fill="none" stroke-dasharray="8 10"></path></g><g stroke-linecap="round" transform="translate(150.9770522409678 191.207226184383) rotate(0 33.5859375 16.240234375)"><path d="M8.12 0 C20.65 0.52, 30.34 2.78, 59.05 0 C62.61 -2.05, 65.3 5.63, 67.17 8.12 C69.17 15.72, 65.73 18.44, 67.17 24.36 C70.19 31.35, 64.78 34.79, 59.05 32.48 C39.03 32.31, 18.46 28.29, 8.12 32.48 C3.45 29.88, -1.57 26.43, 0 24.36 C-1.38 16.11, -2.38 12.66, 0 8.12 C-1.65 0.58, 5.36 1.95, 8.12 0" stroke="none" stroke-width="0" fill="#b2f2bb"></path><path d="M8.12 0 C26.52 -1.78, 46.4 1.26, 59.05 0 M59.05 0 C62.85 -0.6, 68.24 2.97, 67.17 8.12 M67.17 8.12 C66.84 14.28, 65.96 17.3, 67.17 24.36 M67.17 24.36 C66.93 29.96, 63.1 32.88, 59.05 32.48 M59.05 32.48 C41.58 32.9, 23.49 33.56, 8.12 32.48 M8.12 32.48 C3.02 34.04, 0.78 31.22, 0 24.36 M0 24.36 C1.34 17.52, 0.6 13.26, 0 8.12 M0 8.12 C-0.34 4.16, 2.99 1.2, 8.12 0" stroke="#1e1e1e" stroke-width="2.5" fill="none" stroke-dasharray="8 10"></path></g><g stroke-linecap="round" transform="translate(219.4829116159678 192.259960559383) rotate(0 36.7421875 15.359375)"><path d="M7.68 0 C22.06 2.43, 37.13 -2.13, 65.8 0 C69.06 2.92, 74.5 3.14, 73.48 7.68 C72.26 13.25, 75.99 20.66, 73.48 23.04 C73.8 30.47, 73.99 27.24, 65.8 30.72 C52.32 27.56, 42.29 28.31, 7.68 30.72 C0.99 27.37, 3.53 30.01, 0 23.04 C-1.99 20.35, -1.15 13.69, 0 7.68 C2.65 4.51, 0.21 2.92, 7.68 0" stroke="none" stroke-width="0" fill="#ffc9c9"></path><path d="M7.68 0 C27.58 2, 48.2 -0.18, 65.8 0 M65.8 0 C71.99 0.27, 74.04 2.45, 73.48 7.68 M73.48 7.68 C72.31 10.31, 73.27 15.86, 73.48 23.04 M73.48 23.04 C72.12 28.56, 71.74 31.76, 65.8 30.72 M65.8 30.72 C51.77 32.4, 39.69 32.51, 7.68 30.72 M7.68 30.72 C3.34 32.16, 0.9 27.1, 0 23.04 M0 23.04 C0.37 18.04, -0.38 13.95, 0 7.68 M0 7.68 C0.28 3.76, 1.17 -0.14, 7.68 0" stroke="#1e1e1e" stroke-width="2.5" fill="none" stroke-dasharray="8 10"></path></g><g stroke-linecap="round" transform="translate(151.1059584909678 136.066601184383) rotate(0 35.419921875 15.447265625)"><path d="M7.72 0 C30.91 0.43, 49.67 -2.41, 63.12 0 C66.16 2.03, 70.28 5.48, 70.84 7.72 C71.08 10.04, 72.83 12.53, 70.84 23.17 C68.38 27.44, 69.45 32.3, 63.12 30.89 C42.78 30.24, 16.19 30.71, 7.72 30.89 C1.99 27.57, -0.96 31.85, 0 23.17 C-1.6 18.16, 0.88 17.73, 0 7.72 C2.12 5.51, 2.78 -2.4, 7.72 0" stroke="none" stroke-width="0" fill="#ffc9c9"></path><path d="M7.72 0 C18.45 -1.75, 31.7 0.19, 63.12 0 M63.12 0 C67.09 1.99, 71.21 3.22, 70.84 7.72 M70.84 7.72 C70.23 10.52, 70.62 16.07, 70.84 23.17 M70.84 23.17 C68.99 28.33, 67.94 29.14, 63.12 30.89 M63.12 30.89 C48.22 30.41, 29.92 31.58, 7.72 30.89 M7.72 30.89 C0.65 31.05, 1.01 28.4, 0 23.17 M0 23.17 C-0.25 16.26, -0.18 12.82, 0 7.72 M0 7.72 C0.59 1.24, 2.94 1.63, 7.72 0" stroke="#1e1e1e" stroke-width="2.5" fill="none" stroke-dasharray="8 10"></path></g><g stroke-linecap="round" transform="translate(222.0473647409678 135.285351184383) rotate(0 33.5859375 16.240234375)"><path d="M8.12 0 C20.6 -2.79, 32.88 2.02, 59.05 0 C63.91 2.91, 63.69 4.99, 67.17 8.12 C69.08 12.69, 65.18 19.63, 67.17 24.36 C68.36 31.18, 67.82 34.15, 59.05 32.48 C41.99 32.52, 31.08 29.06, 8.12 32.48 C1.75 36.01, -1.86 30.03, 0 24.36 C1.11 20.83, 1.88 15, 0 8.12 C0.2 0.3, 6.13 -2.37, 8.12 0" stroke="none" stroke-width="0" fill="#b2f2bb"></path><path d="M8.12 0 C25.8 0.93, 44.86 2.33, 59.05 0 M59.05 0 C64.83 0.65, 65.73 1, 67.17 8.12 M67.17 8.12 C67.03 12.77, 65.62 14.68, 67.17 24.36 M67.17 24.36 C66.84 28.02, 64.38 33.49, 59.05 32.48 M59.05 32.48 C40.43 32.65, 20.79 32.44, 8.12 32.48 M8.12 32.48 C3.72 32.56, 1.64 28.3, 0 24.36 M0 24.36 C-0.27 20.43, 0.52 12.35, 0 8.12 M0 8.12 C0.36 4.34, 4.45 -0.16, 8.12 0" stroke="#1e1e1e" stroke-width="2.5" fill="none" stroke-dasharray="8 10"></path></g><g stroke-linecap="round" transform="translate(290.5532241159678 136.338085559383) rotate(0 36.7421875 15.359375)"><path d="M7.68 0 C23.12 2.84, 42.21 3.72, 65.8 0 C67.44 2.29, 76.24 2.64, 73.48 7.68 C71.77 11.15, 74.58 17.06, 73.48 23.04 C76.84 29.83, 69.8 32.16, 65.8 30.72 C48.32 27.43, 31.07 34.29, 7.68 30.72 C0.7 30.97, 2.22 26.11, 0 23.04 C1.54 21.33, 0.07 13.27, 0 7.68 C3.42 0.19, 0.02 0.73, 7.68 0" stroke="none" stroke-width="0" fill="#ffc9c9"></path><path d="M7.68 0 C20.01 1.81, 35.05 0.48, 65.8 0 M65.8 0 C69.48 -1.7, 71.52 1.94, 73.48 7.68 M73.48 7.68 C72.06 11.57, 73.22 14.1, 73.48 23.04 M73.48 23.04 C73.4 29.17, 72.06 32.19, 65.8 30.72 M65.8 30.72 C48.76 30.99, 36.6 30.91, 7.68 30.72 M7.68 30.72 C4.2 29.24, 0.73 27.69, 0 23.04 M0 23.04 C0.49 18.4, 0.31 17.07, 0 7.68 M0 7.68 C1.74 2.4, 1.83 0.97, 7.68 0" stroke="#1e1e1e" stroke-width="2.5" fill="none" stroke-dasharray="8 10"></path></g><g stroke-linecap="round" transform="translate(393.8042006784678 165.893749621883) rotate(0 44.83203125 17.63671875)"><path d="M8.82 0 C32.03 0.49, 52.48 -2.57, 80.85 0 C85.19 1.63, 87.98 5.33, 89.66 8.82 C89.84 13.4, 90.53 17.94, 89.66 26.46 C92.55 31.09, 83.99 35.24, 80.85 35.27 C57.05 31.1, 28.34 31.2, 8.82 35.27 C1.16 34.26, -1.22 33.49, 0 26.46 C2.17 20.13, 1.94 14.37, 0 8.82 C0.49 2.85, 1.38 1.27, 8.82 0" stroke="none" stroke-width="0" fill="#b2f2bb"></path><path d="M8.82 0 C29.49 2.33, 46.59 2.5, 80.85 0 M80.85 0 C86.76 1.11, 90.77 2.36, 89.66 8.82 M89.66 8.82 C88.64 15.88, 89.17 20.54, 89.66 26.46 M89.66 26.46 C90.28 32.39, 87.93 35.82, 80.85 35.27 M80.85 35.27 C56.6 34.28, 34.11 35.96, 8.82 35.27 M8.82 35.27 C3.85 36.19, 0.87 32.42, 0 26.46 M0 26.46 C-0.61 21.53, -1.23 18.82, 0 8.82 M0 8.82 C-1.72 3.67, 1.65 0.66, 8.82 0" stroke="#1e1e1e" stroke-width="2.5" fill="none" stroke-dasharray="8 10"></path></g><g transform="translate(406.48424676001076 173.530468371883) rotate(0 32.15198516845703 10)"><text x="32.15198516845703" y="14.016" font-family="Virgil, Segoe UI Emoji" font-size="16px" fill="#1e1e1e" text-anchor="middle" style="white-space: pre;" direction="ltr" dominant-baseline="alphabetic">CPU资源</text></g><g stroke-linecap="round" transform="translate(398.3588881784678 226.923046496883) rotate(0 39.138671875 15.359375)"><path d="M7.68 0 C23.91 1.01, 44.44 2.72, 70.6 0 C75.18 -3.44, 77.76 2.37, 78.28 7.68 C79.72 15.45, 76.07 18.25, 78.28 23.04 C80.14 24.88, 74.21 27.24, 70.6 30.72 C55.19 27.62, 41.09 27.06, 7.68 30.72 C-0.57 33.66, 2.91 28.55, 0 23.04 C1.93 19.85, -2.87 15.51, 0 7.68 C2.4 1.87, 2.66 -0.4, 7.68 0" stroke="none" stroke-width="0" fill="#ffc9c9"></path><path d="M7.68 0 C22.53 0.04, 35.79 1.36, 70.6 0 M70.6 0 C76.88 -1.16, 78.8 3.64, 78.28 7.68 M78.28 7.68 C78 12.47, 79.7 20.2, 78.28 23.04 M78.28 23.04 C78.52 29.24, 75.59 31.59, 70.6 30.72 M70.6 30.72 C49.2 29.6, 25.33 31.04, 7.68 30.72 M7.68 30.72 C1.3 30.95, 1.17 26.32, 0 23.04 M0 23.04 C-1.28 17.19, 0.96 12.04, 0 7.68 M0 7.68 C-0.95 2.31, 2.66 -0.94, 7.68 0" stroke="#1e1e1e" stroke-width="2.5" fill="none" stroke-dasharray="8 10"></path></g><g transform="translate(407.3295684152842 232.282421496883) rotate(0 30.167991638183594 10)"><text x="30.167991638183594" y="14.016" font-family="Virgil, Segoe UI Emoji" font-size="16px" fill="#1e1e1e" text-anchor="middle" style="white-space: pre;" direction="ltr" dominant-baseline="alphabetic">I/O资源</text></g></svg>