<svg version="1.1" xmlns="http://www.w3.org/2000/svg" viewBox="0 0 476.68927137320867 725.4986444523557" width="953.3785427464173" height="1450.9972889047115">
  <!-- svg-source:excalidraw -->
  
  <defs>
    <style class="style-fonts">
      @font-face {
        font-family: "Virgil";
        src: url("https://excalidraw.com/Virgil.woff2");
      }
      @font-face {
        font-family: "Cascadia";
        src: url("https://excalidraw.com/Cascadia.woff2");
      }
      @font-face {
        font-family: "Assistant";
        src: url("https://excalidraw.com/Assistant-Regular.woff2");
      }
    </style>
    
  </defs>
  <rect x="0" y="0" width="476.68927137320867" height="725.4986444523557" fill="#ffffff"></rect><g stroke-linecap="round"><g transform="translate(22.35724012320867 320.2324947390705) rotate(0 2.842170943040401e-14 -154.912109375)"><path d="M-0.52 0.62 C-0.46 -51.09, -0.33 -258.63, -0.09 -310.23 M1.41 -0.11 C1.34 -51.65, -0.96 -257.12, -1.09 -308.91" stroke="#1e1e1e" stroke-width="2" fill="none"></path></g><g transform="translate(22.35724012320867 320.2324947390705) rotate(0 2.842170943040401e-14 -154.912109375)"><path d="M7.63 -285.48 C6.36 -291.84, 2.35 -296.34, -1.09 -308.91 M7.63 -285.48 C4.64 -294.17, 2.18 -302.54, -1.09 -308.91" stroke="#1e1e1e" stroke-width="2" fill="none"></path></g><g transform="translate(22.35724012320867 320.2324947390705) rotate(0 2.842170943040401e-14 -154.912109375)"><path d="M-9.47 -285.36 C-6.24 -291.68, -5.74 -296.2, -1.09 -308.91 M-9.47 -285.36 C-6.12 -294.26, -2.23 -302.67, -1.09 -308.91" stroke="#1e1e1e" stroke-width="2" fill="none"></path></g></g><mask></mask><g stroke-linecap="round"><g transform="translate(11.043575441762812 305.2322874672709) rotate(0 205.10409796572293 0)"><path d="M0.34 -1.03 C68.64 -1.2, 341.13 -1.05, 409.45 -0.68 M-0.94 1.04 C67.78 0.99, 343.35 0.77, 411.76 0.5" stroke="#1e1e1e" stroke-width="2" fill="none"></path></g><g transform="translate(11.043575441762812 305.2322874672709) rotate(0 205.10409796572293 0)"><path d="M388.29 9.1 C392.9 5.44, 399.86 4.48, 411.76 0.5 M388.29 9.1 C397.98 6.04, 407.9 1.52, 411.76 0.5" stroke="#1e1e1e" stroke-width="2" fill="none"></path></g><g transform="translate(11.043575441762812 305.2322874672709) rotate(0 205.10409796572293 0)"><path d="M388.25 -8 C392.92 -7.03, 399.89 -3.35, 411.76 0.5 M388.25 -8 C397.8 -4.27, 407.74 -2.01, 411.76 0.5" stroke="#1e1e1e" stroke-width="2" fill="none"></path></g></g><mask></mask><g stroke-linecap="round"><g transform="translate(79.21661512320867 39.58015098907049) rotate(0 0 136.458984375)"><path d="M-0.71 -0.22 C-0.87 45.3, -0.45 228.51, -0.33 274.03" stroke="#1e1e1e" stroke-width="2.5" fill="none" stroke-dasharray="8 10"></path></g></g><mask></mask><g stroke-linecap="round"><g transform="translate(148.53876542463007 41.71666496992111) rotate(0 0 136.458984375)"><path d="M1.12 -0.12 C1.3 45.55, 0.52 228.47, 0.19 273.79" stroke="#1e1e1e" stroke-width="2.5" fill="none" stroke-dasharray="8 10"></path></g></g><mask></mask><g stroke-linecap="round"><g transform="translate(221.87860917463007 39.78307121992111) rotate(0 0 136.458984375)"><path d="M-1.12 -0.45 C-1.08 45.14, 1 227.29, 1.13 272.69" stroke="#1e1e1e" stroke-width="2.5" fill="none" stroke-dasharray="8 10"></path></g></g><mask></mask><g stroke-linecap="round"><g transform="translate(290.55439042463007 40.27916496992111) rotate(0 0 136.458984375)"><path d="M-0.96 -0.99 C-0.86 44.49, 0.18 227.04, 0.38 272.51" stroke="#1e1e1e" stroke-width="2.5" fill="none" stroke-dasharray="8 10"></path></g></g><mask></mask><g stroke-linecap="round" transform="translate(24.36505262320867 253.3653072390705) rotate(0 27.501953125 15)"><path d="M7.5 0 C14.32 1.26, 27.39 -0.51, 47.5 0 C55.04 0.14, 54.44 -0.5, 55 7.5 C57.26 13.33, 57.2 16.77, 55 22.5 C55.89 29.7, 52.76 31.03, 47.5 30 C36.35 29.22, 18.97 29.95, 7.5 30 C0.59 29.4, -3.28 24.32, 0 22.5 C1.87 17.22, 0.64 15.41, 0 7.5 C-1.32 3.34, -0.23 -0.93, 7.5 0" stroke="none" stroke-width="0" fill="#ffc9c9"></path><path d="M7.5 0 C18.87 -0.87, 28.13 -1.75, 47.5 0 M47.5 0 C52.18 1.17, 53.56 3.93, 55 7.5 M55 7.5 C56.42 12.16, 56.41 15.24, 55 22.5 M55 22.5 C53.6 28.51, 53.03 31.11, 47.5 30 M47.5 30 C40.14 29.53, 30.79 28.16, 7.5 30 M7.5 30 C0.74 29.77, -1.61 27.77, 0 22.5 M0 22.5 C0.57 17.96, -0.9 11.23, 0 7.5 M0 7.5 C-0.71 1.54, 1.74 1.86, 7.5 0" stroke="#1e1e1e" stroke-width="2.5" fill="none" stroke-dasharray="8 10"></path></g><g transform="translate(33.699006480630544 258.3653072390705) rotate(0 18.167999267578125 10)"><text x="18.167999267578125" y="14.016" font-family="Virgil, Segoe UI Emoji" font-size="16px" fill="#1e1e1e" text-anchor="middle" style="white-space: pre;" direction="ltr" dominant-baseline="alphabetic">线程1</text></g><g stroke-linecap="round" transform="translate(81.54864637320867 217.9356197390705) rotate(0 33.185546875 15)"><path d="M7.5 0 C26.3 -3.43, 49.15 1.56, 58.87 0 C61.15 3, 69.79 4.52, 66.37 7.5 C63.74 12.64, 66.65 12.73, 66.37 22.5 C69.97 26.78, 67.13 29.4, 58.87 30 C40.42 30.68, 23.35 31.06, 7.5 30 C2.06 30.43, 2.69 28.02, 0 22.5 C-0.62 15.92, -0.9 13.38, 0 7.5 C1.05 4.83, 4.68 -2.78, 7.5 0" stroke="none" stroke-width="0" fill="#b2f2bb"></path><path d="M7.5 0 C25.25 0.98, 45.99 -0.24, 58.87 0 M58.87 0 C65.02 -1.44, 67.43 2.46, 66.37 7.5 M66.37 7.5 C65.97 11.38, 67.78 18.18, 66.37 22.5 M66.37 22.5 C65.59 25.9, 64.44 31.51, 58.87 30 M58.87 30 C38.9 28.85, 18.56 30.61, 7.5 30 M7.5 30 C3.9 30.48, -1.24 26.31, 0 22.5 M0 22.5 C0.48 19.44, -0.35 16.4, 0 7.5 M0 7.5 C-0.84 2.79, 3.2 -0.63, 7.5 0" stroke="#1e1e1e" stroke-width="2.5" fill="none" stroke-dasharray="8 10"></path></g><g transform="translate(93.03819410270086 222.9356197390705) rotate(0 21.695999145507812 10)"><text x="21.695999145507812" y="14.016" font-family="Virgil, Segoe UI Emoji" font-size="16px" fill="#1e1e1e" text-anchor="middle" style="white-space: pre;" direction="ltr" dominant-baseline="alphabetic">线程2</text></g><g stroke-linecap="round" transform="translate(151.01739637320867 177.7989009890705) rotate(0 35.314453125 15)"><path d="M7.5 0 C19.02 -0.95, 36.2 -0.36, 63.13 0 C67.88 -1.71, 67.17 2.12, 70.63 7.5 C72.82 15.94, 73.18 19.53, 70.63 22.5 C73.48 30.88, 68.42 30.46, 63.13 30 C42.94 33.04, 25.29 31.36, 7.5 30 C0.02 32.7, -1.95 30.8, 0 22.5 C0.59 21.76, -0.75 14.41, 0 7.5 C-1.06 5.61, -0.46 0.86, 7.5 0" stroke="none" stroke-width="0" fill="#a5d8ff"></path><path d="M7.5 0 C22.43 0.72, 33.99 -0.16, 63.13 0 M63.13 0 C66.16 0.45, 68.66 2.78, 70.63 7.5 M70.63 7.5 C69.77 11.7, 71.33 16.68, 70.63 22.5 M70.63 22.5 C71.75 25.92, 67.8 30.79, 63.13 30 M63.13 30 C47.6 29.83, 32.21 29.6, 7.5 30 M7.5 30 C3.46 30.71, -0.31 25.83, 0 22.5 M0 22.5 C-0.11 18.32, -0.28 14.81, 0 7.5 M0 7.5 C-0.48 4.04, 1.91 0.19, 7.5 0" stroke="#1e1e1e" stroke-width="2.5" fill="none" stroke-dasharray="8 10"></path></g><g transform="translate(164.88385145133367 182.7989009890705) rotate(0 21.447998046875 10)"><text x="21.447998046875" y="14.016" font-family="Virgil, Segoe UI Emoji" font-size="16px" fill="#1e1e1e" text-anchor="middle" style="white-space: pre;" direction="ltr" dominant-baseline="alphabetic">线程3</text></g><g stroke-linecap="round" transform="translate(222.06817762320867 137.7285884890705) rotate(0 33.896484375 15)"><path d="M7.5 0 C24.2 2.84, 46.62 -1.18, 60.29 0 C63.33 0.8, 71.01 0.15, 67.79 7.5 C70.4 15.41, 65.87 18.85, 67.79 22.5 C67.43 29.42, 62.29 26.57, 60.29 30 C39.66 28.94, 24.05 27.1, 7.5 30 C0.12 27.3, 1.86 27.73, 0 22.5 C2.51 15.47, 2.07 15.19, 0 7.5 C2.1 4.97, 0.79 -3.54, 7.5 0" stroke="none" stroke-width="0" fill="#ffec99"></path><path d="M7.5 0 C20.94 -0.46, 31.22 -1.14, 60.29 0 M60.29 0 C64.13 -1.96, 67.15 3.89, 67.79 7.5 M67.79 7.5 C67.34 10.14, 66.79 12.96, 67.79 22.5 M67.79 22.5 C66.65 25.83, 63.94 29.85, 60.29 30 M60.29 30 C41.97 28.77, 27.19 28.22, 7.5 30 M7.5 30 C3.57 30.98, -1.87 29.16, 0 22.5 M0 22.5 C-0.88 15.56, 1.48 12.31, 0 7.5 M0 7.5 C0.48 0.58, 3.73 -0.69, 7.5 0" stroke="#1e1e1e" stroke-width="2.5" fill="none" stroke-dasharray="8 10"></path></g><g transform="translate(234.84466688102117 142.7285884890705) rotate(0 21.1199951171875 10)"><text x="21.1199951171875" y="14.016" font-family="Virgil, Segoe UI Emoji" font-size="16px" fill="#1e1e1e" text-anchor="middle" style="white-space: pre;" direction="ltr" dominant-baseline="alphabetic">线程4</text></g><g transform="translate(434.68927137320867 293.6084713015705) rotate(0 16 10)"><text x="0" y="14.016" font-family="Virgil, Segoe UI Emoji" font-size="16px" fill="#1e1e1e" text-anchor="start" style="white-space: pre;" direction="ltr" dominant-baseline="alphabetic">时间</text></g><g transform="translate(172.37286512320867 334.3875240359455) rotate(0 16 10)"><text x="0" y="14.016" font-family="Virgil, Segoe UI Emoji" font-size="16px" fill="#1e1e1e" text-anchor="start" style="white-space: pre;" direction="ltr" dominant-baseline="alphabetic">单核</text></g><g stroke-linecap="round"><g transform="translate(21.714418587442538 687.3983026554807) rotate(0 2.842170943040401e-14 -154.912109375)"><path d="M0.46 -0.03 C0.53 -51.99, -0.19 -258.97, -0.4 -310.62 M-0.75 -1.1 C-0.81 -52.4, -1.96 -258.24, -1.56 -309.49" stroke="#1e1e1e" stroke-width="2" fill="none"></path></g><g transform="translate(21.714418587442538 687.3983026554807) rotate(0 2.842170943040401e-14 -154.912109375)"><path d="M6.99 -286 C4.72 -292.12, 1.46 -298.27, -1.56 -309.49 M6.99 -286 C3.64 -293.13, 1.24 -299.37, -1.56 -309.49" stroke="#1e1e1e" stroke-width="2" fill="none"></path></g><g transform="translate(21.714418587442538 687.3983026554807) rotate(0 2.842170943040401e-14 -154.912109375)"><path d="M-10.11 -286 C-8.39 -292.19, -7.66 -298.34, -1.56 -309.49 M-10.11 -286 C-8.42 -293.06, -5.78 -299.3, -1.56 -309.49" stroke="#1e1e1e" stroke-width="2" fill="none"></path></g></g><mask></mask><g stroke-linecap="round"><g transform="translate(10.40075390599668 672.3980953836812) rotate(0 205.1040979657229 0)"><path d="M-0.4 -0.79 C67.76 -0.8, 341.1 -0.1, 409.41 -0.06 M1.59 1.41 C70.09 1.6, 343.3 1.59, 411.7 1.44" stroke="#1e1e1e" stroke-width="2" fill="none"></path></g><g transform="translate(10.40075390599668 672.3980953836812) rotate(0 205.1040979657229 0)"><path d="M388.21 10.01 C394.85 5.85, 404.02 3.03, 411.7 1.44 M388.21 10.01 C393.43 8.38, 399.93 6.12, 411.7 1.44" stroke="#1e1e1e" stroke-width="2" fill="none"></path></g><g transform="translate(10.40075390599668 672.3980953836812) rotate(0 205.1040979657229 0)"><path d="M388.2 -7.09 C394.83 -5.46, 404.01 -2.48, 411.7 1.44 M388.2 -7.09 C393.25 -4.36, 399.76 -2.26, 411.7 1.44" stroke="#1e1e1e" stroke-width="2" fill="none"></path></g></g><mask></mask><g stroke-linecap="round"><g transform="translate(87.35894983744254 406.28502140548073) rotate(0 0 136.458984375)"><path d="M-0.8 -0.06 C-0.86 45.47, -0.69 226.91, -0.75 272.38" stroke="#1e1e1e" stroke-width="2.5" fill="none" stroke-dasharray="8 10"></path></g></g><mask></mask><g stroke-linecap="round"><g transform="translate(147.895943888864 408.88247288633136) rotate(0 0 136.458984375)"><path d="M-0.75 -0.54 C-0.81 44.92, -1.13 227.04, -1.18 272.72" stroke="#1e1e1e" stroke-width="2.5" fill="none" stroke-dasharray="8 10"></path></g></g><mask></mask><g stroke-linecap="round"><g transform="translate(221.235787638864 406.94887913633136) rotate(0 0 136.458984375)"><path d="M-1.18 -0.2 C-1.22 45.48, -1.16 227.93, -1.03 273.54" stroke="#1e1e1e" stroke-width="2.5" fill="none" stroke-dasharray="8 10"></path></g></g><mask></mask><g stroke-linecap="round"><g transform="translate(289.911568888864 407.44497288633136) rotate(0 0 136.458984375)"><path d="M-1.03 0.62 C-0.9 46.23, -0.57 228.13, -0.4 273.44" stroke="#1e1e1e" stroke-width="2.5" fill="none" stroke-dasharray="8 10"></path></g></g><mask></mask><g stroke-linecap="round" transform="translate(23.722231087442538 620.0701776554807) rotate(0 30.498046875 15.230468750000002)"><path d="M7.62 0 C19.75 -1.59, 35.88 -2.93, 53.38 0 C56.6 2.16, 63.22 5.54, 61 7.62 C58.58 13.88, 62.51 18.91, 61 22.85 C58.18 30.95, 54.88 27.02, 53.38 30.46 C41.68 27.96, 26.33 32.18, 7.62 30.46 C4.31 31.82, -1.58 26.57, 0 22.85 C-2.59 17.91, 0.01 15.36, 0 7.62 C-1.68 -0.25, 0.77 2.6, 7.62 0" stroke="none" stroke-width="0" fill="#ffc9c9"></path><path d="M7.62 0 C18.3 0.07, 26.54 0.69, 53.38 0 M53.38 0 C59.51 0.2, 60.65 1.81, 61 7.62 M61 7.62 C60.07 11.85, 60.97 16.17, 61 22.85 M61 22.85 C62.75 27.14, 57.94 30.42, 53.38 30.46 M53.38 30.46 C40.1 30.37, 24.09 29.5, 7.62 30.46 M7.62 30.46 C2.83 30.24, 1.96 27.76, 0 22.85 M0 22.85 C0.31 17.76, -0.61 14.55, 0 7.62 M0 7.62 C1.23 1.78, 1.74 -0.73, 7.62 0" stroke="#1e1e1e" stroke-width="2.5" fill="none" stroke-dasharray="8 10"></path></g><g transform="translate(36.05227869486441 625.3006464054807) rotate(0 18.167999267578125 10)"><text x="18.167999267578125" y="14.016" font-family="Virgil, Segoe UI Emoji" font-size="16px" fill="#1e1e1e" text-anchor="middle" style="white-space: pre;" direction="ltr" dominant-baseline="alphabetic">线程1</text></g><g stroke-linecap="round" transform="translate(18.706606087442538 565.3865839054807) rotate(0 33.314453125 15)"><path d="M7.5 0 C18.28 3.02, 35 3.86, 59.13 0 C66.91 -1.44, 68.51 -0.53, 66.63 7.5 C64.68 14.55, 64.1 14.48, 66.63 22.5 C66.52 30.33, 66.22 31.89, 59.13 30 C49.69 31.68, 35.13 28.97, 7.5 30 C0.73 29.77, 1 24.07, 0 22.5 C-1.26 16.51, -1.33 16.67, 0 7.5 C-2.53 3.67, -0.36 -3.41, 7.5 0" stroke="none" stroke-width="0" fill="#b2f2bb"></path><path d="M7.5 0 C23.83 0.06, 37.7 -0.86, 59.13 0 M59.13 0 C63.76 0.29, 67.32 1.25, 66.63 7.5 M66.63 7.5 C67.94 11.36, 66.24 16.37, 66.63 22.5 M66.63 22.5 C67.3 26.13, 65.99 31.97, 59.13 30 M59.13 30 C45.26 29.42, 32.77 29.48, 7.5 30 M7.5 30 C2.58 28.72, 1.72 27.78, 0 22.5 M0 22.5 C0.99 17.88, -0.53 13.86, 0 7.5 M0 7.5 C0.6 3.98, 1.54 -1.65, 7.5 0" stroke="#1e1e1e" stroke-width="2.5" fill="none" stroke-dasharray="8 10"></path></g><g transform="translate(30.325060066934725 570.3865839054807) rotate(0 21.695999145507812 10)"><text x="21.695999145507812" y="14.016" font-family="Virgil, Segoe UI Emoji" font-size="16px" fill="#1e1e1e" text-anchor="middle" style="white-space: pre;" direction="ltr" dominant-baseline="alphabetic">线程2</text></g><g stroke-linecap="round" transform="translate(19.47613733744248 504.51939640548073) rotate(0 32.70703125 15.23046875)"><path d="M7.62 0 C28.46 -2.19, 45.63 -3.78, 57.8 0 C63.55 2.13, 65.16 -0.28, 65.41 7.62 C65.06 15.62, 66.73 20.75, 65.41 22.85 C62.43 28.06, 64.12 32.23, 57.8 30.46 C39.08 29.89, 24.91 26.7, 7.62 30.46 C1.08 30.46, 0.2 26.24, 0 22.85 C-1.79 20.35, -2.05 13.48, 0 7.62 C3.09 -0.07, 4.8 -0.78, 7.62 0" stroke="none" stroke-width="0" fill="#a5d8ff"></path><path d="M7.62 0 C22.8 0.47, 39.43 -1.07, 57.8 0 M57.8 0 C62.81 -0.06, 65.4 4.29, 65.41 7.62 M65.41 7.62 C65.88 10.54, 66.79 17.06, 65.41 22.85 M65.41 22.85 C64.9 29.15, 61.48 30.75, 57.8 30.46 M57.8 30.46 C43.37 29.14, 30.51 30.7, 7.62 30.46 M7.62 30.46 C1.94 29.54, 1.26 29.15, 0 22.85 M0 22.85 C0.52 19.98, -0.67 13.61, 0 7.62 M0 7.62 C-1.1 1.45, 0.69 -1.03, 7.62 0" stroke="#1e1e1e" stroke-width="2.5" fill="none" stroke-dasharray="8 10"></path></g><g transform="translate(30.73517054056748 509.74986515548073) rotate(0 21.447998046875 10)"><text x="21.447998046875" y="14.016" font-family="Virgil, Segoe UI Emoji" font-size="16px" fill="#1e1e1e" text-anchor="middle" style="white-space: pre;" direction="ltr" dominant-baseline="alphabetic">线程3</text></g><g stroke-linecap="round" transform="translate(20.18707483744248 443.85142765548073) rotate(0 32.87109375 15.115234375)"><path d="M7.56 0 C21.4 2.89, 33.64 -2.05, 58.18 0 C66.25 -3.58, 62.3 2.41, 65.74 7.56 C63.65 13.38, 66.84 20.34, 65.74 22.67 C67.1 26.13, 61.87 28.46, 58.18 30.23 C41.86 29.36, 28.65 27.68, 7.56 30.23 C-0.27 28.46, 2.6 25.18, 0 22.67 C2.55 15.67, 1.93 12.03, 0 7.56 C0.1 2.18, -0.67 2.14, 7.56 0" stroke="none" stroke-width="0" fill="#ffec99"></path><path d="M7.56 0 C23.42 0.26, 39.39 2.07, 58.18 0 M58.18 0 C62.44 -0.52, 65.7 3.19, 65.74 7.56 M65.74 7.56 C65.49 11.98, 64.83 14.77, 65.74 22.67 M65.74 22.67 C65.52 29.67, 63.06 30.31, 58.18 30.23 M58.18 30.23 C45.63 29.38, 35.54 31.53, 7.56 30.23 M7.56 30.23 C1.76 29.43, -0.73 28.31, 0 22.67 M0 22.67 C-0.76 16.2, -1.33 10.59, 0 7.56 M0 7.56 C1.2 3.75, 4.18 1.54, 7.56 0" stroke="#1e1e1e" stroke-width="2.5" fill="none" stroke-dasharray="8 10"></path></g><g transform="translate(31.93817347025498 448.96666203048073) rotate(0 21.1199951171875 10)"><text x="21.1199951171875" y="14.016" font-family="Virgil, Segoe UI Emoji" font-size="16px" fill="#1e1e1e" text-anchor="middle" style="white-space: pre;" direction="ltr" dominant-baseline="alphabetic">线程4</text></g><g transform="translate(434.0464498374425 660.7742792179807) rotate(0 16 10)"><text x="0" y="14.016" font-family="Virgil, Segoe UI Emoji" font-size="16px" fill="#1e1e1e" text-anchor="start" style="white-space: pre;" direction="ltr" dominant-baseline="alphabetic">时间</text></g><g transform="translate(162.21051233744248 695.4986444523557) rotate(0 21.935989379882812 10)"><text x="0" y="14.016" font-family="Virgil, Segoe UI Emoji" font-size="16px" fill="#1e1e1e" text-anchor="start" style="white-space: pre;" direction="ltr" dominant-baseline="alphabetic">&gt;=4核</text></g></svg>