<svg version="1.1" xmlns="http://www.w3.org/2000/svg" viewBox="0 0 525.697265625 421.52436888193506" width="1051.39453125" height="843.0487377638701">
  <!-- svg-source:excalidraw -->
  
  <defs>
    <style class="style-fonts">
      @font-face {
        font-family: "Virgil";
        src: url("https://excalidraw.com/Virgil.woff2");
      }
      @font-face {
        font-family: "Cascadia";
        src: url("https://excalidraw.com/Cascadia.woff2");
      }
      @font-face {
        font-family: "Assistant";
        src: url("https://excalidraw.com/Assistant-Regular.woff2");
      }
    </style>
    
  </defs>
  <rect x="0" y="0" width="525.697265625" height="421.52436888193506" fill="#ffffff"></rect><g stroke-linecap="round" transform="translate(142.1640625 129.3515625) rotate(0 32.314453125 39.33203125)"><path d="M64.63 39.33 C64.63 41.38, 64.49 43.46, 64.23 45.48 C63.97 47.51, 63.57 49.54, 63.05 51.49 C62.53 53.44, 61.87 55.36, 61.11 57.19 C60.34 59.02, 59.45 60.79, 58.46 62.45 C57.47 64.11, 56.36 65.69, 55.16 67.14 C53.97 68.59, 52.67 69.95, 51.31 71.15 C49.95 72.36, 48.49 73.45, 46.98 74.38 C45.48 75.31, 43.9 76.11, 42.3 76.74 C40.7 77.37, 39.03 77.86, 37.37 78.18 C35.71 78.5, 34 78.66, 32.31 78.66 C30.63 78.66, 28.92 78.5, 27.26 78.18 C25.6 77.86, 23.93 77.37, 22.33 76.74 C20.73 76.11, 19.15 75.31, 17.64 74.38 C16.14 73.45, 14.68 72.36, 13.32 71.15 C11.96 69.95, 10.66 68.59, 9.46 67.14 C8.27 65.69, 7.16 64.11, 6.17 62.45 C5.18 60.79, 4.29 59.02, 3.52 57.19 C2.76 55.36, 2.1 53.44, 1.58 51.49 C1.06 49.54, 0.66 47.51, 0.4 45.48 C0.13 43.46, 0 41.38, 0 39.33 C0 37.28, 0.13 35.2, 0.4 33.18 C0.66 31.15, 1.06 29.13, 1.58 27.18 C2.1 25.23, 2.76 23.3, 3.52 21.48 C4.29 19.65, 5.18 17.87, 6.17 16.21 C7.16 14.55, 8.27 12.97, 9.46 11.52 C10.66 10.07, 11.96 8.72, 13.32 7.51 C14.68 6.31, 16.14 5.22, 17.64 4.29 C19.15 3.36, 20.73 2.56, 22.33 1.93 C23.93 1.29, 25.6 0.81, 27.26 0.48 C28.92 0.16, 30.63 0, 32.31 0 C34 0, 35.71 0.16, 37.37 0.48 C39.03 0.81, 40.7 1.29, 42.3 1.93 C43.9 2.56, 45.48 3.36, 46.98 4.29 C48.49 5.22, 49.95 6.31, 51.31 7.51 C52.67 8.72, 53.97 10.07, 55.16 11.52 C56.36 12.97, 57.47 14.55, 58.46 16.21 C59.45 17.87, 60.34 19.65, 61.11 21.48 C61.87 23.3, 62.53 25.23, 63.05 27.18 C63.57 29.13, 63.97 31.15, 64.23 33.18 C64.49 35.2, 64.56 38.31, 64.63 39.33 C64.7 40.36, 64.7 38.31, 64.63 39.33" stroke="#1971c2" stroke-width="2" fill="none"></path></g><g transform="translate(164.61800450247767 148.17164773528378) rotate(0 10.0107421875 20.69999999999999)"><text x="10.0107421875" y="33.120703125" font-family="Helvetica, Segoe UI Emoji" font-size="36px" fill="#1971c2" text-anchor="middle" style="white-space: pre;" direction="ltr" dominant-baseline="alphabetic">1</text></g><g stroke-linecap="round"><g transform="translate(208.00545939452172 167.69416635685548) rotate(0 41.52070780273914 1.863854321572262)"><path d="M0 0 C13.84 0.62, 69.2 3.11, 83.04 3.73 M0 0 C13.84 0.62, 69.2 3.11, 83.04 3.73" stroke="#1971c2" stroke-width="2" fill="none"></path></g><g transform="translate(208.00545939452172 167.69416635685548) rotate(0 41.52070780273914 1.863854321572262)"><path d="M59.19 11.22 C68.59 8.26, 78 5.31, 83.04 3.73 M59.19 11.22 C65.77 9.15, 72.34 7.09, 83.04 3.73" stroke="#1971c2" stroke-width="2" fill="none"></path></g><g transform="translate(208.00545939452172 167.69416635685548) rotate(0 41.52070780273914 1.863854321572262)"><path d="M59.96 -5.87 C69.06 -2.08, 78.16 1.7, 83.04 3.73 M59.96 -5.87 C66.32 -3.22, 72.69 -0.58, 83.04 3.73" stroke="#1971c2" stroke-width="2" fill="none"></path></g></g><mask></mask><g stroke-linecap="round" transform="translate(297.646484375 130.78125) rotate(0 32.314453125 39.33203125)"><path d="M64.63 39.33 C64.63 41.38, 64.49 43.46, 64.23 45.48 C63.97 47.51, 63.57 49.54, 63.05 51.49 C62.53 53.44, 61.87 55.36, 61.11 57.19 C60.34 59.02, 59.45 60.79, 58.46 62.45 C57.47 64.11, 56.36 65.69, 55.16 67.14 C53.97 68.59, 52.67 69.95, 51.31 71.15 C49.95 72.36, 48.49 73.45, 46.98 74.38 C45.48 75.31, 43.9 76.11, 42.3 76.74 C40.7 77.37, 39.03 77.86, 37.37 78.18 C35.71 78.5, 34 78.66, 32.31 78.66 C30.63 78.66, 28.92 78.5, 27.26 78.18 C25.6 77.86, 23.93 77.37, 22.33 76.74 C20.73 76.11, 19.15 75.31, 17.64 74.38 C16.14 73.45, 14.68 72.36, 13.32 71.15 C11.96 69.95, 10.66 68.59, 9.46 67.14 C8.27 65.69, 7.16 64.11, 6.17 62.45 C5.18 60.79, 4.29 59.02, 3.52 57.19 C2.76 55.36, 2.1 53.44, 1.58 51.49 C1.06 49.54, 0.66 47.51, 0.4 45.48 C0.13 43.46, 0 41.38, 0 39.33 C0 37.28, 0.13 35.2, 0.4 33.18 C0.66 31.15, 1.06 29.13, 1.58 27.18 C2.1 25.23, 2.76 23.3, 3.52 21.48 C4.29 19.65, 5.18 17.87, 6.17 16.21 C7.16 14.55, 8.27 12.97, 9.46 11.52 C10.66 10.07, 11.96 8.72, 13.32 7.51 C14.68 6.31, 16.14 5.22, 17.64 4.29 C19.15 3.36, 20.73 2.56, 22.33 1.93 C23.93 1.29, 25.6 0.81, 27.26 0.48 C28.92 0.16, 30.63 0, 32.31 0 C34 0, 35.71 0.16, 37.37 0.48 C39.03 0.81, 40.7 1.29, 42.3 1.93 C43.9 2.56, 45.48 3.36, 46.98 4.29 C48.49 5.22, 49.95 6.31, 51.31 7.51 C52.67 8.72, 53.97 10.07, 55.16 11.52 C56.36 12.97, 57.47 14.55, 58.46 16.21 C59.45 17.87, 60.34 19.65, 61.11 21.48 C61.87 23.3, 62.53 25.23, 63.05 27.18 C63.57 29.13, 63.97 31.15, 64.23 33.18 C64.49 35.2, 64.56 38.31, 64.63 39.33 C64.7 40.36, 64.7 38.31, 64.63 39.33" stroke="#1971c2" stroke-width="2" fill="none"></path></g><g transform="translate(320.1004263774777 149.60133523528378) rotate(0 10.0107421875 20.69999999999999)"><text x="10.0107421875" y="33.120703125" font-family="Helvetica, Segoe UI Emoji" font-size="36px" fill="#1971c2" text-anchor="middle" style="white-space: pre;" direction="ltr" dominant-baseline="alphabetic">2</text></g><g stroke-linecap="round"><g transform="translate(364.630859375 172.630859375) rotate(0 41.275390625 1.767578125)"><path d="M0 0 C13.76 0.59, 68.79 2.95, 82.55 3.54 M0 0 C13.76 0.59, 68.79 2.95, 82.55 3.54" stroke="#1971c2" stroke-width="2" fill="none"></path></g><g transform="translate(364.630859375 172.630859375) rotate(0 41.275390625 1.767578125)"><path d="M58.71 11.07 C66.41 8.64, 74.1 6.21, 82.55 3.54 M58.71 11.07 C64.6 9.21, 70.48 7.35, 82.55 3.54" stroke="#1971c2" stroke-width="2" fill="none"></path></g><g transform="translate(364.630859375 172.630859375) rotate(0 41.275390625 1.767578125)"><path d="M59.45 -6.01 C66.9 -2.93, 74.36 0.15, 82.55 3.54 M59.45 -6.01 C65.15 -3.66, 70.86 -1.3, 82.55 3.54" stroke="#1971c2" stroke-width="2" fill="none"></path></g></g><mask></mask><g stroke-linecap="round" transform="translate(451.068359375 136.17578125) rotate(0 32.314453125 39.33203125)"><path d="M64.63 39.33 C64.63 41.38, 64.49 43.46, 64.23 45.48 C63.97 47.51, 63.57 49.54, 63.05 51.49 C62.53 53.44, 61.87 55.36, 61.11 57.19 C60.34 59.02, 59.45 60.79, 58.46 62.45 C57.47 64.11, 56.36 65.69, 55.16 67.14 C53.97 68.59, 52.67 69.95, 51.31 71.15 C49.95 72.36, 48.49 73.45, 46.98 74.38 C45.48 75.31, 43.9 76.11, 42.3 76.74 C40.7 77.37, 39.03 77.86, 37.37 78.18 C35.71 78.5, 34 78.66, 32.31 78.66 C30.63 78.66, 28.92 78.5, 27.26 78.18 C25.6 77.86, 23.93 77.37, 22.33 76.74 C20.73 76.11, 19.15 75.31, 17.64 74.38 C16.14 73.45, 14.68 72.36, 13.32 71.15 C11.96 69.95, 10.66 68.59, 9.46 67.14 C8.27 65.69, 7.16 64.11, 6.17 62.45 C5.18 60.79, 4.29 59.02, 3.52 57.19 C2.76 55.36, 2.1 53.44, 1.58 51.49 C1.06 49.54, 0.66 47.51, 0.4 45.48 C0.13 43.46, 0 41.38, 0 39.33 C0 37.28, 0.13 35.2, 0.4 33.18 C0.66 31.15, 1.06 29.13, 1.58 27.18 C2.1 25.23, 2.76 23.3, 3.52 21.48 C4.29 19.65, 5.18 17.87, 6.17 16.21 C7.16 14.55, 8.27 12.97, 9.46 11.52 C10.66 10.07, 11.96 8.72, 13.32 7.51 C14.68 6.31, 16.14 5.22, 17.64 4.29 C19.15 3.36, 20.73 2.56, 22.33 1.93 C23.93 1.29, 25.6 0.81, 27.26 0.48 C28.92 0.16, 30.63 0, 32.31 0 C34 0, 35.71 0.16, 37.37 0.48 C39.03 0.81, 40.7 1.29, 42.3 1.93 C43.9 2.56, 45.48 3.36, 46.98 4.29 C48.49 5.22, 49.95 6.31, 51.31 7.51 C52.67 8.72, 53.97 10.07, 55.16 11.52 C56.36 12.97, 57.47 14.55, 58.46 16.21 C59.45 17.87, 60.34 19.65, 61.11 21.48 C61.87 23.3, 62.53 25.23, 63.05 27.18 C63.57 29.13, 63.97 31.15, 64.23 33.18 C64.49 35.2, 64.56 38.31, 64.63 39.33 C64.7 40.36, 64.7 38.31, 64.63 39.33" stroke="#1971c2" stroke-width="2" fill="none"></path></g><g transform="translate(473.5223013774777 154.99586648528378) rotate(0 10.0107421875 20.69999999999999)"><text x="10.0107421875" y="33.120703125" font-family="Helvetica, Segoe UI Emoji" font-size="36px" fill="#1971c2" text-anchor="middle" style="white-space: pre;" direction="ltr" dominant-baseline="alphabetic">3</text></g><g stroke-linecap="round" transform="translate(145.373046875 10) rotate(0 32.2421875 27.2109375)"><path d="M64.48 27.21 C64.48 28.79, 64.32 30.38, 63.99 31.94 C63.67 33.49, 63.18 35.04, 62.54 36.52 C61.9 38, 61.1 39.45, 60.16 40.82 C59.23 42.18, 58.14 43.5, 56.94 44.7 C55.74 45.91, 54.4 47.04, 52.97 48.06 C51.54 49.07, 49.98 49.99, 48.36 50.78 C46.75 51.56, 45.02 52.24, 43.27 52.78 C41.52 53.32, 39.68 53.73, 37.84 54.01 C36 54.28, 34.11 54.42, 32.24 54.42 C30.38 54.42, 28.48 54.28, 26.64 54.01 C24.81 53.73, 22.97 53.32, 21.21 52.78 C19.46 52.24, 17.74 51.56, 16.12 50.78 C14.5 49.99, 12.95 49.07, 11.52 48.06 C10.09 47.04, 8.74 45.91, 7.54 44.7 C6.34 43.5, 5.25 42.18, 4.32 40.82 C3.39 39.45, 2.58 38, 1.94 36.52 C1.31 35.04, 0.81 33.49, 0.49 31.94 C0.17 30.38, 0 28.79, 0 27.21 C0 25.64, 0.17 24.04, 0.49 22.49 C0.81 20.93, 1.31 19.38, 1.94 17.9 C2.58 16.42, 3.39 14.97, 4.32 13.61 C5.25 12.24, 6.34 10.93, 7.54 9.72 C8.74 8.51, 10.09 7.38, 11.52 6.37 C12.95 5.35, 14.5 4.43, 16.12 3.65 C17.74 2.86, 19.46 2.18, 21.21 1.64 C22.97 1.1, 24.81 0.69, 26.64 0.41 C28.48 0.14, 30.38 0, 32.24 0 C34.11 0, 36 0.14, 37.84 0.41 C39.68 0.69, 41.52 1.1, 43.27 1.64 C45.02 2.18, 46.75 2.86, 48.36 3.65 C49.98 4.43, 51.54 5.35, 52.97 6.37 C54.4 7.38, 55.74 8.51, 56.94 9.72 C58.14 10.93, 59.23 12.24, 60.16 13.61 C61.1 14.97, 61.9 16.42, 62.54 17.9 C63.18 19.38, 63.67 20.93, 63.99 22.49 C64.32 24.04, 64.4 26.42, 64.48 27.21 C64.57 28, 64.57 26.42, 64.48 27.21" stroke="#e03131" stroke-width="2" fill="none"></path></g><g transform="translate(160.01968995346186 27.769899071306668) rotate(0 17.796875 9.199999999999989)"><text x="17.796875" y="14.720312499999999" font-family="Helvetica, Segoe UI Emoji" font-size="16px" fill="#e03131" text-anchor="middle" style="white-space: pre;" direction="ltr" dominant-baseline="alphabetic">head</text></g><g stroke-linecap="round"><g transform="translate(176.3314647718223 71.79516777224785) rotate(0 0.21381673314456862 28.183501257822087)"><path d="M0 0 C0.07 9.39, 0.36 46.97, 0.43 56.37 M0 0 C0.07 9.39, 0.36 46.97, 0.43 56.37" stroke="#1971c2" stroke-width="2" fill="none"></path></g><g transform="translate(176.3314647718223 71.79516777224785) rotate(0 0.21381673314456862 28.183501257822087)"><path d="M-8.3 32.94 C-4.97 41.88, -1.64 50.82, 0.43 56.37 M-8.3 32.94 C-5.71 39.88, -3.13 46.82, 0.43 56.37" stroke="#1971c2" stroke-width="2" fill="none"></path></g><g transform="translate(176.3314647718223 71.79516777224785) rotate(0 0.21381673314456862 28.183501257822087)"><path d="M8.8 32.81 C5.6 41.8, 2.41 50.79, 0.43 56.37 M8.8 32.81 C6.32 39.79, 3.84 46.77, 0.43 56.37" stroke="#1971c2" stroke-width="2" fill="none"></path></g></g><mask></mask><g stroke-linecap="round" transform="translate(17.38671875 293.4140625) rotate(0.23486440736766467 32.2421875 27.2109375)"><path d="M64.48 27.21 C64.48 28.79, 64.32 30.38, 63.99 31.94 C63.67 33.49, 63.18 35.04, 62.54 36.52 C61.9 38, 61.1 39.45, 60.16 40.82 C59.23 42.18, 58.14 43.5, 56.94 44.7 C55.74 45.91, 54.4 47.04, 52.97 48.06 C51.54 49.07, 49.98 49.99, 48.36 50.78 C46.75 51.56, 45.02 52.24, 43.27 52.78 C41.52 53.32, 39.68 53.73, 37.84 54.01 C36 54.28, 34.11 54.42, 32.24 54.42 C30.38 54.42, 28.48 54.28, 26.64 54.01 C24.81 53.73, 22.97 53.32, 21.21 52.78 C19.46 52.24, 17.74 51.56, 16.12 50.78 C14.5 49.99, 12.95 49.07, 11.52 48.06 C10.09 47.04, 8.74 45.91, 7.54 44.7 C6.34 43.5, 5.25 42.18, 4.32 40.82 C3.39 39.45, 2.58 38, 1.94 36.52 C1.31 35.04, 0.81 33.49, 0.49 31.94 C0.17 30.38, 0 28.79, 0 27.21 C0 25.64, 0.17 24.04, 0.49 22.49 C0.81 20.93, 1.31 19.38, 1.94 17.9 C2.58 16.42, 3.39 14.97, 4.32 13.61 C5.25 12.24, 6.34 10.93, 7.54 9.72 C8.74 8.51, 10.09 7.38, 11.52 6.37 C12.95 5.35, 14.5 4.43, 16.12 3.65 C17.74 2.86, 19.46 2.18, 21.21 1.64 C22.97 1.1, 24.81 0.69, 26.64 0.41 C28.48 0.14, 30.38 0, 32.24 0 C34.11 0, 36 0.14, 37.84 0.41 C39.68 0.69, 41.52 1.1, 43.27 1.64 C45.02 2.18, 46.75 2.86, 48.36 3.65 C49.98 4.43, 51.54 5.35, 52.97 6.37 C54.4 7.38, 55.74 8.51, 56.94 9.72 C58.14 10.93, 59.23 12.24, 60.16 13.61 C61.1 14.97, 61.9 16.42, 62.54 17.9 C63.18 19.38, 63.67 20.93, 63.99 22.49 C64.32 24.04, 64.4 26.42, 64.48 27.21 C64.57 28, 64.57 26.42, 64.48 27.21" stroke="#1e1e1e" stroke-width="2" fill="none"></path></g><g transform="translate(39.603674328461864 311.18396157130667) rotate(0.23486440736766467 10.2265625 9.199999999999989)"><text x="10.2265625" y="14.720312499999999" font-family="Helvetica, Segoe UI Emoji" font-size="16px" fill="#1e1e1e" text-anchor="middle" style="white-space: pre;" direction="ltr" dominant-baseline="alphabetic">tail</text></g><g stroke-linecap="round"><g transform="translate(45.69183243555551 290.92559895650555) rotate(0 -1.2762357658763221 -46.36866059241919)"><path d="M0 0 C-0.43 -15.46, -2.13 -77.28, -2.55 -92.74 M0 0 C-0.43 -15.46, -2.13 -77.28, -2.55 -92.74" stroke="#1971c2" stroke-width="2" fill="none"></path></g><g transform="translate(45.69183243555551 290.92559895650555) rotate(0 -1.2762357658763221 -46.36866059241919)"><path d="M6.64 -69.49 C3.27 -78.01, -0.1 -86.53, -2.55 -92.74 M6.64 -69.49 C4.15 -75.8, 1.65 -82.11, -2.55 -92.74" stroke="#1971c2" stroke-width="2" fill="none"></path></g><g transform="translate(45.69183243555551 290.92559895650555) rotate(0 -1.2762357658763221 -46.36866059241919)"><path d="M-10.45 -69.02 C-7.56 -77.71, -4.66 -86.41, -2.55 -92.74 M-10.45 -69.02 C-8.31 -75.45, -6.17 -81.89, -2.55 -92.74" stroke="#1971c2" stroke-width="2" fill="none"></path></g></g><mask></mask><g stroke-linecap="round" transform="translate(10 134.05078125) rotate(0 32.2421875 27.2109375)"><path d="M64.48 27.21 C64.48 28.79, 64.32 30.38, 63.99 31.94 C63.67 33.49, 63.18 35.04, 62.54 36.52 C61.9 38, 61.1 39.45, 60.16 40.82 C59.23 42.18, 58.14 43.5, 56.94 44.7 C55.74 45.91, 54.4 47.04, 52.97 48.06 C51.54 49.07, 49.98 49.99, 48.36 50.78 C46.75 51.56, 45.02 52.24, 43.27 52.78 C41.52 53.32, 39.68 53.73, 37.84 54.01 C36 54.28, 34.11 54.42, 32.24 54.42 C30.38 54.42, 28.48 54.28, 26.64 54.01 C24.81 53.73, 22.97 53.32, 21.21 52.78 C19.46 52.24, 17.74 51.56, 16.12 50.78 C14.5 49.99, 12.95 49.07, 11.52 48.06 C10.09 47.04, 8.74 45.91, 7.54 44.7 C6.34 43.5, 5.25 42.18, 4.32 40.82 C3.39 39.45, 2.58 38, 1.94 36.52 C1.31 35.04, 0.81 33.49, 0.49 31.94 C0.17 30.38, 0 28.79, 0 27.21 C0 25.64, 0.17 24.04, 0.49 22.49 C0.81 20.93, 1.31 19.38, 1.94 17.9 C2.58 16.42, 3.39 14.97, 4.32 13.61 C5.25 12.24, 6.34 10.93, 7.54 9.72 C8.74 8.51, 10.09 7.38, 11.52 6.37 C12.95 5.35, 14.5 4.43, 16.12 3.65 C17.74 2.86, 19.46 2.18, 21.21 1.64 C22.97 1.1, 24.81 0.69, 26.64 0.41 C28.48 0.14, 30.38 0, 32.24 0 C34.11 0, 36 0.14, 37.84 0.41 C39.68 0.69, 41.52 1.1, 43.27 1.64 C45.02 2.18, 46.75 2.86, 48.36 3.65 C49.98 4.43, 51.54 5.35, 52.97 6.37 C54.4 7.38, 55.74 8.51, 56.94 9.72 C58.14 10.93, 59.23 12.24, 60.16 13.61 C61.1 14.97, 61.9 16.42, 62.54 17.9 C63.18 19.38, 63.67 20.93, 63.99 22.49 C64.32 24.04, 64.4 26.42, 64.48 27.21 C64.57 28, 64.57 26.42, 64.48 27.21" stroke="#1971c2" stroke-width="2" fill="none"></path></g><g transform="translate(28.662268078461864 151.82068032130667) rotate(0 13.78125 9.199999999999989)"><text x="13.78125" y="14.720312499999999" font-family="Helvetica, Segoe UI Emoji" font-size="16px" fill="#1971c2" text-anchor="middle" style="white-space: pre;" direction="ltr" dominant-baseline="alphabetic">Null</text></g><g stroke-linecap="round" transform="translate(293.01953125 10.71484375) rotate(0 32.2421875 27.2109375)"><path d="M64.48 27.21 C64.48 28.79, 64.32 30.38, 63.99 31.94 C63.67 33.49, 63.18 35.04, 62.54 36.52 C61.9 38, 61.1 39.45, 60.16 40.82 C59.23 42.18, 58.14 43.5, 56.94 44.7 C55.74 45.91, 54.4 47.04, 52.97 48.06 C51.54 49.07, 49.98 49.99, 48.36 50.78 C46.75 51.56, 45.02 52.24, 43.27 52.78 C41.52 53.32, 39.68 53.73, 37.84 54.01 C36 54.28, 34.11 54.42, 32.24 54.42 C30.38 54.42, 28.48 54.28, 26.64 54.01 C24.81 53.73, 22.97 53.32, 21.21 52.78 C19.46 52.24, 17.74 51.56, 16.12 50.78 C14.5 49.99, 12.95 49.07, 11.52 48.06 C10.09 47.04, 8.74 45.91, 7.54 44.7 C6.34 43.5, 5.25 42.18, 4.32 40.82 C3.39 39.45, 2.58 38, 1.94 36.52 C1.31 35.04, 0.81 33.49, 0.49 31.94 C0.17 30.38, 0 28.79, 0 27.21 C0 25.64, 0.17 24.04, 0.49 22.49 C0.81 20.93, 1.31 19.38, 1.94 17.9 C2.58 16.42, 3.39 14.97, 4.32 13.61 C5.25 12.24, 6.34 10.93, 7.54 9.72 C8.74 8.51, 10.09 7.38, 11.52 6.37 C12.95 5.35, 14.5 4.43, 16.12 3.65 C17.74 2.86, 19.46 2.18, 21.21 1.64 C22.97 1.1, 24.81 0.69, 26.64 0.41 C28.48 0.14, 30.38 0, 32.24 0 C34.11 0, 36 0.14, 37.84 0.41 C39.68 0.69, 41.52 1.1, 43.27 1.64 C45.02 2.18, 46.75 2.86, 48.36 3.65 C49.98 4.43, 51.54 5.35, 52.97 6.37 C54.4 7.38, 55.74 8.51, 56.94 9.72 C58.14 10.93, 59.23 12.24, 60.16 13.61 C61.1 14.97, 61.9 16.42, 62.54 17.9 C63.18 19.38, 63.67 20.93, 63.99 22.49 C64.32 24.04, 64.4 26.42, 64.48 27.21 C64.57 28, 64.57 26.42, 64.48 27.21" stroke="#e03131" stroke-width="2.5" fill="none" stroke-dasharray="1.5 8"></path></g><g transform="translate(307.6661743284619 28.484742821306668) rotate(0 17.796875 9.199999999999989)"><text x="17.796875" y="14.720312499999999" font-family="Helvetica, Segoe UI Emoji" font-size="16px" fill="#e03131" text-anchor="middle" style="white-space: pre;" direction="ltr" dominant-baseline="alphabetic">head</text></g><g stroke-linecap="round"><g transform="translate(326.83326048883464 71.02916367756359) rotate(0 0.26439576116536045 28.310680072436583)"><path d="M0 0 C0.09 9.44, 0.44 47.18, 0.53 56.62" stroke="#1971c2" stroke-width="2.5" fill="none" stroke-dasharray="1.5 8"></path></g><g transform="translate(326.83326048883464 71.02916367756359) rotate(0 0.26439576116536045 28.310680072436583)"><path d="M-8.24 33.21 C-5.14 41.5, -2.03 49.78, 0.53 56.62" stroke="#1971c2" stroke-width="2.5" fill="none" stroke-dasharray="1.5 6"></path></g><g transform="translate(326.83326048883464 71.02916367756359) rotate(0 0.26439576116536045 28.310680072436583)"><path d="M8.86 33.05 C5.91 41.39, 2.96 49.73, 0.53 56.62" stroke="#1971c2" stroke-width="2.5" fill="none" stroke-dasharray="1.5 6"></path></g></g><mask></mask><g stroke-linecap="round" transform="translate(140.88671875 292.71484375000006) rotate(0.23486440736766467 32.2421875 27.21093749999997)"><path d="M64.48 27.21 C64.48 28.79, 64.32 30.38, 63.99 31.94 C63.67 33.49, 63.18 35.04, 62.54 36.52 C61.9 38, 61.1 39.45, 60.16 40.82 C59.23 42.18, 58.14 43.5, 56.94 44.7 C55.74 45.91, 54.4 47.04, 52.97 48.06 C51.54 49.07, 49.98 49.99, 48.36 50.78 C46.75 51.56, 45.02 52.24, 43.27 52.78 C41.52 53.32, 39.68 53.73, 37.84 54.01 C36 54.28, 34.11 54.42, 32.24 54.42 C30.38 54.42, 28.48 54.28, 26.64 54.01 C24.81 53.73, 22.97 53.32, 21.21 52.78 C19.46 52.24, 17.74 51.56, 16.12 50.78 C14.5 49.99, 12.95 49.07, 11.52 48.06 C10.09 47.04, 8.74 45.91, 7.54 44.7 C6.34 43.5, 5.25 42.18, 4.32 40.82 C3.39 39.45, 2.58 38, 1.94 36.52 C1.31 35.04, 0.81 33.49, 0.49 31.94 C0.17 30.38, 0 28.79, 0 27.21 C0 25.64, 0.17 24.04, 0.49 22.49 C0.81 20.93, 1.31 19.38, 1.94 17.9 C2.58 16.42, 3.39 14.97, 4.32 13.61 C5.25 12.24, 6.34 10.93, 7.54 9.72 C8.74 8.51, 10.09 7.38, 11.52 6.37 C12.95 5.35, 14.5 4.43, 16.12 3.65 C17.74 2.86, 19.46 2.18, 21.21 1.64 C22.97 1.1, 24.81 0.69, 26.64 0.41 C28.48 0.14, 30.38 0, 32.24 0 C34.11 0, 36 0.14, 37.84 0.41 C39.68 0.69, 41.52 1.1, 43.27 1.64 C45.02 2.18, 46.75 2.86, 48.36 3.65 C49.98 4.43, 51.54 5.35, 52.97 6.37 C54.4 7.38, 55.74 8.51, 56.94 9.72 C58.14 10.93, 59.23 12.24, 60.16 13.61 C61.1 14.97, 61.9 16.42, 62.54 17.9 C63.18 19.38, 63.67 20.93, 63.99 22.49 C64.32 24.04, 64.4 26.42, 64.48 27.21 C64.57 28, 64.57 26.42, 64.48 27.21" stroke="#1e1e1e" stroke-width="2.5" fill="none" stroke-dasharray="1.5 8"></path></g><g transform="translate(163.10367432846186 310.4847428213067) rotate(0.23486440736766467 10.2265625 9.199999999999989)"><text x="10.2265625" y="14.720312499999999" font-family="Helvetica, Segoe UI Emoji" font-size="16px" fill="#1e1e1e" text-anchor="middle" style="white-space: pre;" direction="ltr" dominant-baseline="alphabetic">tail</text></g><g stroke-linecap="round"><g transform="translate(170.1275373034092 283.6778635008334) rotate(0 0.0755876965907305 -35.47473850083338)"><path d="M0 0 C0.03 -11.82, 0.13 -59.12, 0.15 -70.95" stroke="#1971c2" stroke-width="2.5" fill="none" stroke-dasharray="1.5 8"></path></g><g transform="translate(170.1275373034092 283.6778635008334) rotate(0 0.0755876965907305 -35.47473850083338)"><path d="M8.65 -47.44 C6.13 -54.4, 3.62 -61.36, 0.15 -70.95" stroke="#1971c2" stroke-width="2.5" fill="none" stroke-dasharray="1.5 6"></path></g><g transform="translate(170.1275373034092 283.6778635008334) rotate(0 0.0755876965907305 -35.47473850083338)"><path d="M-8.45 -47.48 C-5.9 -54.43, -3.36 -61.38, 0.15 -70.95" stroke="#1971c2" stroke-width="2.5" fill="none" stroke-dasharray="1.5 6"></path></g></g><mask></mask><g stroke-linecap="round"><g transform="translate(204.65234375 84.63671875) rotate(0 58.462890625 2.232421875)"><path d="M0 0 C19.49 0.74, 97.44 3.72, 116.93 4.46" stroke="#1e1e1e" stroke-width="2.5" fill="none" stroke-dasharray="8 10"></path></g><g transform="translate(204.65234375 84.63671875) rotate(0 58.462890625 2.232421875)"><path d="M93.12 12.11 C100.5 9.74, 107.88 7.37, 116.93 4.46" stroke="#1e1e1e" stroke-width="2.5" fill="none"></path></g><g transform="translate(204.65234375 84.63671875) rotate(0 58.462890625 2.232421875)"><path d="M93.78 -4.98 C100.95 -2.05, 108.13 0.88, 116.93 4.46" stroke="#1e1e1e" stroke-width="2.5" fill="none"></path></g></g><mask></mask><g stroke-linecap="round" transform="translate(237.80859375 41.61328125) rotate(0 13.88671875 20.5)"><path d="M27.77 20.5 C27.77 21.69, 27.7 22.89, 27.56 24.06 C27.42 25.23, 27.21 26.4, 26.94 27.51 C26.66 28.63, 26.31 29.72, 25.91 30.75 C25.51 31.78, 25.04 32.77, 24.52 33.68 C24.01 34.59, 23.43 35.44, 22.81 36.2 C22.2 36.97, 21.53 37.66, 20.83 38.25 C20.13 38.85, 19.39 39.36, 18.64 39.76 C17.88 40.17, 17.09 40.48, 16.3 40.69 C15.51 40.89, 14.69 41, 13.89 41 C13.08 41, 12.27 40.89, 11.48 40.69 C10.68 40.48, 9.89 40.17, 9.14 39.76 C8.38 39.36, 7.64 38.85, 6.94 38.25 C6.25 37.66, 5.58 36.97, 4.96 36.2 C4.34 35.44, 3.77 34.59, 3.25 33.68 C2.73 32.77, 2.26 31.78, 1.86 30.75 C1.46 29.72, 1.11 28.63, 0.84 27.51 C0.56 26.4, 0.35 25.23, 0.21 24.06 C0.07 22.89, 0 21.69, 0 20.5 C0 19.31, 0.07 18.11, 0.21 16.94 C0.35 15.77, 0.56 14.6, 0.84 13.49 C1.11 12.37, 1.46 11.28, 1.86 10.25 C2.26 9.22, 2.73 8.23, 3.25 7.32 C3.77 6.41, 4.34 5.56, 4.96 4.8 C5.58 4.03, 6.25 3.34, 6.94 2.75 C7.64 2.15, 8.38 1.64, 9.14 1.24 C9.89 0.83, 10.68 0.52, 11.48 0.31 C12.27 0.11, 13.08 0, 13.89 0 C14.69 0, 15.51 0.11, 16.3 0.31 C17.09 0.52, 17.88 0.83, 18.64 1.24 C19.39 1.64, 20.13 2.15, 20.83 2.75 C21.53 3.34, 22.2 4.03, 22.81 4.8 C23.43 5.56, 24.01 6.41, 24.52 7.32 C25.04 8.23, 25.51 9.22, 25.91 10.25 C26.31 11.28, 26.66 12.37, 26.94 13.49 C27.21 14.6, 27.42 15.77, 27.56 16.94 C27.7 18.11, 27.74 19.91, 27.77 20.5 C27.81 21.09, 27.81 19.91, 27.77 20.5" stroke="#1e1e1e" stroke-width="2.5" fill="none" stroke-dasharray="1.5 8"></path></g><g transform="translate(247.4267007534446 52.917592235675784) rotate(0 4.44921875 9.199999999999989)"><text x="4.44921875" y="14.720312499999999" font-family="Helvetica, Segoe UI Emoji" font-size="16px" fill="#1e1e1e" text-anchor="middle" style="white-space: pre;" direction="ltr" dominant-baseline="alphabetic">b</text></g><g stroke-linecap="round" transform="translate(275.60546875 296.67578124999994) rotate(0.23486440736766467 32.2421875 27.21093749999997)"><path d="M64.48 27.21 C64.48 28.79, 64.32 30.38, 63.99 31.94 C63.67 33.49, 63.18 35.04, 62.54 36.52 C61.9 38, 61.1 39.45, 60.16 40.82 C59.23 42.18, 58.14 43.5, 56.94 44.7 C55.74 45.91, 54.4 47.04, 52.97 48.06 C51.54 49.07, 49.98 49.99, 48.36 50.78 C46.75 51.56, 45.02 52.24, 43.27 52.78 C41.52 53.32, 39.68 53.73, 37.84 54.01 C36 54.28, 34.11 54.42, 32.24 54.42 C30.38 54.42, 28.48 54.28, 26.64 54.01 C24.81 53.73, 22.97 53.32, 21.21 52.78 C19.46 52.24, 17.74 51.56, 16.12 50.78 C14.5 49.99, 12.95 49.07, 11.52 48.06 C10.09 47.04, 8.74 45.91, 7.54 44.7 C6.34 43.5, 5.25 42.18, 4.32 40.82 C3.39 39.45, 2.58 38, 1.94 36.52 C1.31 35.04, 0.81 33.49, 0.49 31.94 C0.17 30.38, 0 28.79, 0 27.21 C0 25.64, 0.17 24.04, 0.49 22.49 C0.81 20.93, 1.31 19.38, 1.94 17.9 C2.58 16.42, 3.39 14.97, 4.32 13.61 C5.25 12.24, 6.34 10.93, 7.54 9.72 C8.74 8.51, 10.09 7.38, 11.52 6.37 C12.95 5.35, 14.5 4.43, 16.12 3.65 C17.74 2.86, 19.46 2.18, 21.21 1.64 C22.97 1.1, 24.81 0.69, 26.64 0.41 C28.48 0.14, 30.38 0, 32.24 0 C34.11 0, 36 0.14, 37.84 0.41 C39.68 0.69, 41.52 1.1, 43.27 1.64 C45.02 2.18, 46.75 2.86, 48.36 3.65 C49.98 4.43, 51.54 5.35, 52.97 6.37 C54.4 7.38, 55.74 8.51, 56.94 9.72 C58.14 10.93, 59.23 12.24, 60.16 13.61 C61.1 14.97, 61.9 16.42, 62.54 17.9 C63.18 19.38, 63.67 20.93, 63.99 22.49 C64.32 24.04, 64.4 26.42, 64.48 27.21 C64.57 28, 64.57 26.42, 64.48 27.21" stroke="#1e1e1e" stroke-width="2.5" fill="none" stroke-dasharray="1.5 8"></path></g><g transform="translate(294.7130493284618 314.4456803213066) rotate(0.23486440736766467 13.3359375 9.199999999999989)"><text x="13.3359375" y="14.720312499999999" font-family="Helvetica, Segoe UI Emoji" font-size="16px" fill="#1e1e1e" text-anchor="middle" style="white-space: pre;" direction="ltr" dominant-baseline="alphabetic">tmp</text></g><g stroke-linecap="round"><g transform="translate(297.94816138682984 293.3622172509526) rotate(0 -47.80344038014039 -47.692092413090876)"><path d="M0 0 C-15.93 -15.9, -79.67 -79.49, -95.61 -95.38" stroke="#1e1e1e" stroke-width="2.5" fill="none" stroke-dasharray="1.5 8"></path></g><g transform="translate(297.94816138682984 293.3622172509526) rotate(0 -47.80344038014039 -47.692092413090876)"><path d="M-72.94 -84.85 C-78.48 -87.42, -84.02 -90, -95.61 -95.38" stroke="#1e1e1e" stroke-width="2.5" fill="none" stroke-dasharray="1.5 6"></path></g><g transform="translate(297.94816138682984 293.3622172509526) rotate(0 -47.80344038014039 -47.692092413090876)"><path d="M-85.02 -72.74 C-87.6 -78.27, -90.19 -83.81, -95.61 -95.38" stroke="#1e1e1e" stroke-width="2.5" fill="none" stroke-dasharray="1.5 6"></path></g></g><mask></mask><g stroke-linecap="round" transform="translate(265.6171875 224.71875) rotate(0 13.88671875 20.5)"><path d="M27.77 20.5 C27.77 21.69, 27.7 22.89, 27.56 24.06 C27.42 25.23, 27.21 26.4, 26.94 27.51 C26.66 28.63, 26.31 29.72, 25.91 30.75 C25.51 31.78, 25.04 32.77, 24.52 33.68 C24.01 34.59, 23.43 35.44, 22.81 36.2 C22.2 36.97, 21.53 37.66, 20.83 38.25 C20.13 38.85, 19.39 39.36, 18.64 39.76 C17.88 40.17, 17.09 40.48, 16.3 40.69 C15.51 40.89, 14.69 41, 13.89 41 C13.08 41, 12.27 40.89, 11.48 40.69 C10.68 40.48, 9.89 40.17, 9.14 39.76 C8.38 39.36, 7.64 38.85, 6.94 38.25 C6.25 37.66, 5.58 36.97, 4.96 36.2 C4.34 35.44, 3.77 34.59, 3.25 33.68 C2.73 32.77, 2.26 31.78, 1.86 30.75 C1.46 29.72, 1.11 28.63, 0.84 27.51 C0.56 26.4, 0.35 25.23, 0.21 24.06 C0.07 22.89, 0 21.69, 0 20.5 C0 19.31, 0.07 18.11, 0.21 16.94 C0.35 15.77, 0.56 14.6, 0.84 13.49 C1.11 12.37, 1.46 11.28, 1.86 10.25 C2.26 9.22, 2.73 8.23, 3.25 7.32 C3.77 6.41, 4.34 5.56, 4.96 4.8 C5.58 4.03, 6.25 3.34, 6.94 2.75 C7.64 2.15, 8.38 1.64, 9.14 1.24 C9.89 0.83, 10.68 0.52, 11.48 0.31 C12.27 0.11, 13.08 0, 13.89 0 C14.69 0, 15.51 0.11, 16.3 0.31 C17.09 0.52, 17.88 0.83, 18.64 1.24 C19.39 1.64, 20.13 2.15, 20.83 2.75 C21.53 3.34, 22.2 4.03, 22.81 4.8 C23.43 5.56, 24.01 6.41, 24.52 7.32 C25.04 8.23, 25.51 9.22, 25.91 10.25 C26.31 11.28, 26.66 12.37, 26.94 13.49 C27.21 14.6, 27.42 15.77, 27.56 16.94 C27.7 18.11, 27.74 19.91, 27.77 20.5 C27.81 21.09, 27.81 19.91, 27.77 20.5" stroke="#1e1e1e" stroke-width="2.5" fill="none" stroke-dasharray="1.5 8"></path></g><g transform="translate(275.2352945034446 236.02306098567578) rotate(0 4.44921875 9.199999999999989)"><text x="4.44921875" y="14.720312499999999" font-family="Helvetica, Segoe UI Emoji" font-size="16px" fill="#1e1e1e" text-anchor="middle" style="white-space: pre;" direction="ltr" dominant-baseline="alphabetic">a</text></g><g stroke-linecap="round" transform="translate(134.1171875 238.390625) rotate(0 13.88671875 20.5)"><path d="M27.77 20.5 C27.77 21.69, 27.7 22.89, 27.56 24.06 C27.42 25.23, 27.21 26.4, 26.94 27.51 C26.66 28.63, 26.31 29.72, 25.91 30.75 C25.51 31.78, 25.04 32.77, 24.52 33.68 C24.01 34.59, 23.43 35.44, 22.81 36.2 C22.2 36.97, 21.53 37.66, 20.83 38.25 C20.13 38.85, 19.39 39.36, 18.64 39.76 C17.88 40.17, 17.09 40.48, 16.3 40.69 C15.51 40.89, 14.69 41, 13.89 41 C13.08 41, 12.27 40.89, 11.48 40.69 C10.68 40.48, 9.89 40.17, 9.14 39.76 C8.38 39.36, 7.64 38.85, 6.94 38.25 C6.25 37.66, 5.58 36.97, 4.96 36.2 C4.34 35.44, 3.77 34.59, 3.25 33.68 C2.73 32.77, 2.26 31.78, 1.86 30.75 C1.46 29.72, 1.11 28.63, 0.84 27.51 C0.56 26.4, 0.35 25.23, 0.21 24.06 C0.07 22.89, 0 21.69, 0 20.5 C0 19.31, 0.07 18.11, 0.21 16.94 C0.35 15.77, 0.56 14.6, 0.84 13.49 C1.11 12.37, 1.46 11.28, 1.86 10.25 C2.26 9.22, 2.73 8.23, 3.25 7.32 C3.77 6.41, 4.34 5.56, 4.96 4.8 C5.58 4.03, 6.25 3.34, 6.94 2.75 C7.64 2.15, 8.38 1.64, 9.14 1.24 C9.89 0.83, 10.68 0.52, 11.48 0.31 C12.27 0.11, 13.08 0, 13.89 0 C14.69 0, 15.51 0.11, 16.3 0.31 C17.09 0.52, 17.88 0.83, 18.64 1.24 C19.39 1.64, 20.13 2.15, 20.83 2.75 C21.53 3.34, 22.2 4.03, 22.81 4.8 C23.43 5.56, 24.01 6.41, 24.52 7.32 C25.04 8.23, 25.51 9.22, 25.91 10.25 C26.31 11.28, 26.66 12.37, 26.94 13.49 C27.21 14.6, 27.42 15.77, 27.56 16.94 C27.7 18.11, 27.74 19.91, 27.77 20.5 C27.81 21.09, 27.81 19.91, 27.77 20.5" stroke="#1e1e1e" stroke-width="2.5" fill="none" stroke-dasharray="1.5 8"></path></g><g transform="translate(143.7352945034446 249.69493598567578) rotate(0 4.44921875 9.199999999999989)"><text x="4.44921875" y="14.720312499999999" font-family="Helvetica, Segoe UI Emoji" font-size="16px" fill="#1e1e1e" text-anchor="middle" style="white-space: pre;" direction="ltr" dominant-baseline="alphabetic">d</text></g><g stroke-linecap="round"><g transform="translate(305.4929190044346 357.40974841867586) rotate(0 -123.95021056029648 24.847933862146107)"><path d="M0 0 C-18.76 9.02, -71.27 54.84, -112.58 54.11 C-153.9 53.37, -225.35 5.34, -247.9 -4.41 M0 0 C-18.76 9.02, -71.27 54.84, -112.58 54.11 C-153.9 53.37, -225.35 5.34, -247.9 -4.41" stroke="#1e1e1e" stroke-width="1" fill="none"></path></g><g transform="translate(305.4929190044346 357.40974841867586) rotate(0 -123.95021056029648 24.847933862146107)"><path d="M-223.15 -0.85 C-232.65 -2.22, -242.14 -3.58, -247.9 -4.41 M-223.15 -0.85 C-231.43 -2.04, -239.7 -3.23, -247.9 -4.41" stroke="#1e1e1e" stroke-width="1" fill="none"></path></g><g transform="translate(305.4929190044346 357.40974841867586) rotate(0 -123.95021056029648 24.847933862146107)"><path d="M-231.23 14.22 C-237.62 7.07, -244.02 -0.07, -247.9 -4.41 M-231.23 14.22 C-236.8 7.99, -242.38 1.76, -247.9 -4.41" stroke="#1e1e1e" stroke-width="1" fill="none"></path></g></g><mask></mask><g stroke-linecap="round" transform="translate(177.171875 367.00390625) rotate(0 13.88671875 20.5)"><path d="M27.77 20.5 C27.77 21.69, 27.7 22.89, 27.56 24.06 C27.42 25.23, 27.21 26.4, 26.94 27.51 C26.66 28.63, 26.31 29.72, 25.91 30.75 C25.51 31.78, 25.04 32.77, 24.52 33.68 C24.01 34.59, 23.43 35.44, 22.81 36.2 C22.2 36.97, 21.53 37.66, 20.83 38.25 C20.13 38.85, 19.39 39.36, 18.64 39.76 C17.88 40.17, 17.09 40.48, 16.3 40.69 C15.51 40.89, 14.69 41, 13.89 41 C13.08 41, 12.27 40.89, 11.48 40.69 C10.68 40.48, 9.89 40.17, 9.14 39.76 C8.38 39.36, 7.64 38.85, 6.94 38.25 C6.25 37.66, 5.58 36.97, 4.96 36.2 C4.34 35.44, 3.77 34.59, 3.25 33.68 C2.73 32.77, 2.26 31.78, 1.86 30.75 C1.46 29.72, 1.11 28.63, 0.84 27.51 C0.56 26.4, 0.35 25.23, 0.21 24.06 C0.07 22.89, 0 21.69, 0 20.5 C0 19.31, 0.07 18.11, 0.21 16.94 C0.35 15.77, 0.56 14.6, 0.84 13.49 C1.11 12.37, 1.46 11.28, 1.86 10.25 C2.26 9.22, 2.73 8.23, 3.25 7.32 C3.77 6.41, 4.34 5.56, 4.96 4.8 C5.58 4.03, 6.25 3.34, 6.94 2.75 C7.64 2.15, 8.38 1.64, 9.14 1.24 C9.89 0.83, 10.68 0.52, 11.48 0.31 C12.27 0.11, 13.08 0, 13.89 0 C14.69 0, 15.51 0.11, 16.3 0.31 C17.09 0.52, 17.88 0.83, 18.64 1.24 C19.39 1.64, 20.13 2.15, 20.83 2.75 C21.53 3.34, 22.2 4.03, 22.81 4.8 C23.43 5.56, 24.01 6.41, 24.52 7.32 C25.04 8.23, 25.51 9.22, 25.91 10.25 C26.31 11.28, 26.66 12.37, 26.94 13.49 C27.21 14.6, 27.42 15.77, 27.56 16.94 C27.7 18.11, 27.74 19.91, 27.77 20.5 C27.81 21.09, 27.81 19.91, 27.77 20.5" stroke="#1e1e1e" stroke-width="2.5" fill="none" stroke-dasharray="1.5 8"></path></g><g transform="translate(187.2392007534446 378.3082172356758) rotate(0 4 9.200000000000003)"><text x="4" y="14.720312499999999" font-family="Helvetica, Segoe UI Emoji" font-size="16px" fill="#1e1e1e" text-anchor="middle" style="white-space: pre;" direction="ltr" dominant-baseline="alphabetic">c</text></g><g stroke-linecap="round"><g transform="translate(209.73776606508807 321.0196574691418) rotate(0 31.73187077090165 2.351584201686194)"><path d="M0 0 C10.58 0.78, 52.89 3.92, 63.46 4.7" stroke="#1e1e1e" stroke-width="2.5" fill="none" stroke-dasharray="1.5 8"></path></g><g transform="translate(209.73776606508807 321.0196574691418) rotate(0 31.73187077090165 2.351584201686194)"><path d="M39.4 11.49 C48.45 8.94, 57.49 6.39, 63.46 4.7" stroke="#1e1e1e" stroke-width="2.5" fill="none" stroke-dasharray="1.5 6"></path></g><g transform="translate(209.73776606508807 321.0196574691418) rotate(0 31.73187077090165 2.351584201686194)"><path d="M40.67 -5.56 C49.24 -1.7, 57.8 2.16, 63.46 4.7" stroke="#1e1e1e" stroke-width="2.5" fill="none" stroke-dasharray="1.5 6"></path></g></g><mask></mask><g stroke-linecap="round" transform="translate(211.9453125 271.75) rotate(0 13.88671875 20.5)"><path d="M27.77 20.5 C27.77 21.69, 27.7 22.89, 27.56 24.06 C27.42 25.23, 27.21 26.4, 26.94 27.51 C26.66 28.63, 26.31 29.72, 25.91 30.75 C25.51 31.78, 25.04 32.77, 24.52 33.68 C24.01 34.59, 23.43 35.44, 22.81 36.2 C22.2 36.97, 21.53 37.66, 20.83 38.25 C20.13 38.85, 19.39 39.36, 18.64 39.76 C17.88 40.17, 17.09 40.48, 16.3 40.69 C15.51 40.89, 14.69 41, 13.89 41 C13.08 41, 12.27 40.89, 11.48 40.69 C10.68 40.48, 9.89 40.17, 9.14 39.76 C8.38 39.36, 7.64 38.85, 6.94 38.25 C6.25 37.66, 5.58 36.97, 4.96 36.2 C4.34 35.44, 3.77 34.59, 3.25 33.68 C2.73 32.77, 2.26 31.78, 1.86 30.75 C1.46 29.72, 1.11 28.63, 0.84 27.51 C0.56 26.4, 0.35 25.23, 0.21 24.06 C0.07 22.89, 0 21.69, 0 20.5 C0 19.31, 0.07 18.11, 0.21 16.94 C0.35 15.77, 0.56 14.6, 0.84 13.49 C1.11 12.37, 1.46 11.28, 1.86 10.25 C2.26 9.22, 2.73 8.23, 3.25 7.32 C3.77 6.41, 4.34 5.56, 4.96 4.8 C5.58 4.03, 6.25 3.34, 6.94 2.75 C7.64 2.15, 8.38 1.64, 9.14 1.24 C9.89 0.83, 10.68 0.52, 11.48 0.31 C12.27 0.11, 13.08 0, 13.89 0 C14.69 0, 15.51 0.11, 16.3 0.31 C17.09 0.52, 17.88 0.83, 18.64 1.24 C19.39 1.64, 20.13 2.15, 20.83 2.75 C21.53 3.34, 22.2 4.03, 22.81 4.8 C23.43 5.56, 24.01 6.41, 24.52 7.32 C25.04 8.23, 25.51 9.22, 25.91 10.25 C26.31 11.28, 26.66 12.37, 26.94 13.49 C27.21 14.6, 27.42 15.77, 27.56 16.94 C27.7 18.11, 27.74 19.91, 27.77 20.5 C27.81 21.09, 27.81 19.91, 27.77 20.5" stroke="#1e1e1e" stroke-width="2.5" fill="none" stroke-dasharray="1.5 8"></path></g><g transform="translate(221.5634195034446 283.0543109856758) rotate(0 4.44921875 9.199999999999989)"><text x="4.44921875" y="14.720312499999999" font-family="Helvetica, Segoe UI Emoji" font-size="16px" fill="#1e1e1e" text-anchor="middle" style="white-space: pre;" direction="ltr" dominant-baseline="alphabetic">d</text></g><g stroke-linecap="round"><g transform="translate(80.89025479161279 319.91162909595874) rotate(0 26.658213510994784 1.3530004662534054)"><path d="M0 0 C8.89 0.45, 44.43 2.26, 53.32 2.71" stroke="#1e1e1e" stroke-width="2.5" fill="none" stroke-dasharray="8 10"></path></g><g transform="translate(80.89025479161279 319.91162909595874) rotate(0 26.658213510994784 1.3530004662534054)"><path d="M29.42 10.05 C38.42 7.29, 47.43 4.52, 53.32 2.71" stroke="#1e1e1e" stroke-width="2.5" fill="none"></path></g><g transform="translate(80.89025479161279 319.91162909595874) rotate(0 26.658213510994784 1.3530004662534054)"><path d="M30.29 -7.02 C38.96 -3.36, 47.64 0.31, 53.32 2.71" stroke="#1e1e1e" stroke-width="2.5" fill="none"></path></g></g><mask></mask><g stroke-linecap="round" transform="translate(85.078125 276.921875) rotate(0 13.88671875 20.5)"><path d="M27.77 20.5 C27.77 21.69, 27.7 22.89, 27.56 24.06 C27.42 25.23, 27.21 26.4, 26.94 27.51 C26.66 28.63, 26.31 29.72, 25.91 30.75 C25.51 31.78, 25.04 32.77, 24.52 33.68 C24.01 34.59, 23.43 35.44, 22.81 36.2 C22.2 36.97, 21.53 37.66, 20.83 38.25 C20.13 38.85, 19.39 39.36, 18.64 39.76 C17.88 40.17, 17.09 40.48, 16.3 40.69 C15.51 40.89, 14.69 41, 13.89 41 C13.08 41, 12.27 40.89, 11.48 40.69 C10.68 40.48, 9.89 40.17, 9.14 39.76 C8.38 39.36, 7.64 38.85, 6.94 38.25 C6.25 37.66, 5.58 36.97, 4.96 36.2 C4.34 35.44, 3.77 34.59, 3.25 33.68 C2.73 32.77, 2.26 31.78, 1.86 30.75 C1.46 29.72, 1.11 28.63, 0.84 27.51 C0.56 26.4, 0.35 25.23, 0.21 24.06 C0.07 22.89, 0 21.69, 0 20.5 C0 19.31, 0.07 18.11, 0.21 16.94 C0.35 15.77, 0.56 14.6, 0.84 13.49 C1.11 12.37, 1.46 11.28, 1.86 10.25 C2.26 9.22, 2.73 8.23, 3.25 7.32 C3.77 6.41, 4.34 5.56, 4.96 4.8 C5.58 4.03, 6.25 3.34, 6.94 2.75 C7.64 2.15, 8.38 1.64, 9.14 1.24 C9.89 0.83, 10.68 0.52, 11.48 0.31 C12.27 0.11, 13.08 0, 13.89 0 C14.69 0, 15.51 0.11, 16.3 0.31 C17.09 0.52, 17.88 0.83, 18.64 1.24 C19.39 1.64, 20.13 2.15, 20.83 2.75 C21.53 3.34, 22.2 4.03, 22.81 4.8 C23.43 5.56, 24.01 6.41, 24.52 7.32 C25.04 8.23, 25.51 9.22, 25.91 10.25 C26.31 11.28, 26.66 12.37, 26.94 13.49 C27.21 14.6, 27.42 15.77, 27.56 16.94 C27.7 18.11, 27.74 19.91, 27.77 20.5 C27.81 21.09, 27.81 19.91, 27.77 20.5" stroke="#1e1e1e" stroke-width="2.5" fill="none" stroke-dasharray="1.5 8"></path></g><g transform="translate(94.6962320034446 288.2261859856758) rotate(0 4.44921875 9.199999999999989)"><text x="4.44921875" y="14.720312499999999" font-family="Helvetica, Segoe UI Emoji" font-size="16px" fill="#1e1e1e" text-anchor="middle" style="white-space: pre;" direction="ltr" dominant-baseline="alphabetic">d</text></g></svg>