<?xml version="1.0" encoding="UTF-8"?>
<!-- Do not edit this file with editors other than draw.io -->
<!DOCTYPE svg PUBLIC "-//W3C//DTD SVG 1.1//EN" "http://www.w3.org/Graphics/SVG/1.1/DTD/svg11.dtd">
<svg xmlns="http://www.w3.org/2000/svg" xmlns:xlink="http://www.w3.org/1999/xlink" version="1.1" width="281px" height="281px" viewBox="-0.5 -0.5 281 281" content="&lt;mxfile host=&quot;app.diagrams.net&quot; modified=&quot;2024-06-05T05:40:36.089Z&quot; agent=&quot;Mozilla/5.0 (Macintosh; Intel Mac OS X 10_15_7) AppleWebKit/537.36 (KHTML, like Gecko) Chrome/125.0.0.0 Safari/537.36 Edg/125.0.0.0&quot; etag=&quot;VPoZZOxtDVCggVyTs2yu&quot; version=&quot;24.4.13&quot; type=&quot;device&quot; scale=&quot;1&quot; border=&quot;0&quot;&gt;&#10;  &lt;diagram name=&quot;第 1 页&quot; id=&quot;E5U0VIo7AA8Wzg3rVZ2s&quot;&gt;&#10;    &lt;mxGraphModel dx=&quot;1105&quot; dy=&quot;649&quot; grid=&quot;0&quot; gridSize=&quot;10&quot; guides=&quot;1&quot; tooltips=&quot;1&quot; connect=&quot;1&quot; arrows=&quot;1&quot; fold=&quot;1&quot; page=&quot;0&quot; pageScale=&quot;1&quot; pageWidth=&quot;827&quot; pageHeight=&quot;1169&quot; background=&quot;none&quot; math=&quot;0&quot; shadow=&quot;0&quot;&gt;&#10;      &lt;root&gt;&#10;        &lt;mxCell id=&quot;0&quot; /&gt;&#10;        &lt;mxCell id=&quot;1&quot; parent=&quot;0&quot; /&gt;&#10;        &lt;mxCell id=&quot;3NEfmykXIkhp-iUEw1IG-1&quot; value=&quot;&quot; style=&quot;ellipse;whiteSpace=wrap;html=1;aspect=fixed;fillColor=#fff2cc;strokeColor=#d6b656;sketch=1;curveFitting=1;jiggle=2;&quot; parent=&quot;1&quot; vertex=&quot;1&quot;&gt;&#10;          &lt;mxGeometry x=&quot;231.72000000000003&quot; y=&quot;70&quot; width=&quot;280&quot; height=&quot;280&quot; as=&quot;geometry&quot; /&gt;&#10;        &lt;/mxCell&gt;&#10;        &lt;mxCell id=&quot;3NEfmykXIkhp-iUEw1IG-2&quot; value=&quot;&quot; style=&quot;shape=tape;whiteSpace=wrap;html=1;rotation=-60;size=1;sketch=1;curveFitting=1;jiggle=2;&quot; parent=&quot;1&quot; vertex=&quot;1&quot;&gt;&#10;          &lt;mxGeometry x=&quot;380&quot; y=&quot;210&quot; width=&quot;85.45&quot; height=&quot;14.33&quot; as=&quot;geometry&quot; /&gt;&#10;        &lt;/mxCell&gt;&#10;        &lt;mxCell id=&quot;_HzTRslDxaeiTcyWEfck-1&quot; value=&quot;&quot; style=&quot;shape=tape;whiteSpace=wrap;html=1;rotation=60;size=1;sketch=1;curveFitting=1;jiggle=2;&quot; vertex=&quot;1&quot; parent=&quot;1&quot;&gt;&#10;          &lt;mxGeometry x=&quot;382&quot; y=&quot;211&quot; width=&quot;85.45&quot; height=&quot;14.33&quot; as=&quot;geometry&quot; /&gt;&#10;        &lt;/mxCell&gt;&#10;        &lt;mxCell id=&quot;_HzTRslDxaeiTcyWEfck-3&quot; value=&quot;&quot; style=&quot;shape=tape;whiteSpace=wrap;html=1;rotation=-60;size=1;sketch=1;curveFitting=1;jiggle=2;&quot; vertex=&quot;1&quot; parent=&quot;1&quot;&gt;&#10;          &lt;mxGeometry x=&quot;267&quot; y=&quot;210&quot; width=&quot;85.45&quot; height=&quot;14.33&quot; as=&quot;geometry&quot; /&gt;&#10;        &lt;/mxCell&gt;&#10;        &lt;mxCell id=&quot;_HzTRslDxaeiTcyWEfck-4&quot; value=&quot;&quot; style=&quot;shape=tape;whiteSpace=wrap;html=1;rotation=60;size=1;sketch=1;curveFitting=1;jiggle=2;&quot; vertex=&quot;1&quot; parent=&quot;1&quot;&gt;&#10;          &lt;mxGeometry x=&quot;269&quot; y=&quot;211&quot; width=&quot;85.45&quot; height=&quot;14.33&quot; as=&quot;geometry&quot; /&gt;&#10;        &lt;/mxCell&gt;&#10;        &lt;mxCell id=&quot;_HzTRslDxaeiTcyWEfck-5&quot; value=&quot;&quot; style=&quot;shape=xor;whiteSpace=wrap;html=1;rotation=-93;sketch=1;curveFitting=1;jiggle=2;&quot; vertex=&quot;1&quot; parent=&quot;1&quot;&gt;&#10;          &lt;mxGeometry x=&quot;304.72&quot; y=&quot;130&quot; width=&quot;10&quot; height=&quot;65&quot; as=&quot;geometry&quot; /&gt;&#10;        &lt;/mxCell&gt;&#10;        &lt;mxCell id=&quot;_HzTRslDxaeiTcyWEfck-10&quot; value=&quot;&quot; style=&quot;shape=xor;whiteSpace=wrap;html=1;rotation=-90;sketch=1;curveFitting=1;jiggle=2;&quot; vertex=&quot;1&quot; parent=&quot;1&quot;&gt;&#10;          &lt;mxGeometry x=&quot;419.72&quot; y=&quot;130&quot; width=&quot;10&quot; height=&quot;65&quot; as=&quot;geometry&quot; /&gt;&#10;        &lt;/mxCell&gt;&#10;        &lt;mxCell id=&quot;_HzTRslDxaeiTcyWEfck-13&quot; value=&quot;&quot; style=&quot;shape=tape;whiteSpace=wrap;html=1;rotation=-60;size=1;sketch=1;curveFitting=1;jiggle=2;&quot; vertex=&quot;1&quot; parent=&quot;1&quot;&gt;&#10;          &lt;mxGeometry x=&quot;326&quot; y=&quot;280&quot; width=&quot;85.45&quot; height=&quot;14.33&quot; as=&quot;geometry&quot; /&gt;&#10;        &lt;/mxCell&gt;&#10;        &lt;mxCell id=&quot;_HzTRslDxaeiTcyWEfck-14&quot; value=&quot;&quot; style=&quot;shape=tape;whiteSpace=wrap;html=1;rotation=60;size=1;sketch=1;curveFitting=1;jiggle=2;&quot; vertex=&quot;1&quot; parent=&quot;1&quot;&gt;&#10;          &lt;mxGeometry x=&quot;328&quot; y=&quot;281&quot; width=&quot;85.45&quot; height=&quot;14.33&quot; as=&quot;geometry&quot; /&gt;&#10;        &lt;/mxCell&gt;&#10;        &lt;mxCell id=&quot;_HzTRslDxaeiTcyWEfck-15&quot; value=&quot;&quot; style=&quot;shape=tape;whiteSpace=wrap;html=1;rotation=-60;size=1;sketch=1;curveFitting=1;jiggle=2;fillColor=#e51400;strokeColor=#B20000;fontColor=#ffffff;&quot; vertex=&quot;1&quot; parent=&quot;1&quot;&gt;&#10;          &lt;mxGeometry x=&quot;327&quot; y=&quot;110&quot; width=&quot;85.45&quot; height=&quot;14.33&quot; as=&quot;geometry&quot; /&gt;&#10;        &lt;/mxCell&gt;&#10;        &lt;mxCell id=&quot;_HzTRslDxaeiTcyWEfck-16&quot; value=&quot;&quot; style=&quot;shape=tape;whiteSpace=wrap;html=1;rotation=60;size=1;sketch=1;curveFitting=1;jiggle=2;fillColor=#e51400;strokeColor=#B20000;fontColor=#ffffff;&quot; vertex=&quot;1&quot; parent=&quot;1&quot;&gt;&#10;          &lt;mxGeometry x=&quot;329&quot; y=&quot;111&quot; width=&quot;85.45&quot; height=&quot;14.33&quot; as=&quot;geometry&quot; /&gt;&#10;        &lt;/mxCell&gt;&#10;      &lt;/root&gt;&#10;    &lt;/mxGraphModel&gt;&#10;  &lt;/diagram&gt;&#10;&lt;/mxfile&gt;&#10;" style="background-color: rgb(255, 255, 255);"><defs/><rect fill="#ffffff" width="100%" height="100%" x="0" y="0"/><g><g><ellipse cx="139.72" cy="140" rx="140" ry="140" fill="none" stroke="none" pointer-events="all"/><path d="M 40.88 40.19 C 40.88 40.19 40.88 40.19 40.88 40.19 M 40.88 40.19 C 40.88 40.19 40.88 40.19 40.88 40.19 M 22.9 66.97 C 29.41 54.67 43.52 50.55 52.43 33 M 22.9 66.97 C 32.75 57.12 41.1 49.41 52.43 33 M 18.05 78.65 C 27.22 64.12 35.58 53.52 63.97 25.82 M 18.05 78.65 C 32.08 60.88 47.22 46.6 63.97 25.82 M 13.85 89.57 C 37.2 61.25 56.62 33.04 76.18 17.88 M 13.85 89.57 C 32.28 68.38 50.58 46.67 76.18 17.88 M 9 101.25 C 34.51 78.03 55.37 51.87 82.48 16.73 M 9 101.25 C 34.53 69.54 63.9 38.91 82.48 16.73 M 4.8 112.18 C 31.56 78.11 59.21 47.78 89.43 14.82 M 4.8 112.18 C 23.59 90.74 42.61 69.66 89.43 14.82 M 1.26 122.35 C 27.39 94.73 49.18 67.4 97.04 12.16 M 1.26 122.35 C 36.59 80.09 70.31 42.08 97.04 12.16 M 2.31 127.24 C 29.83 92.95 50.76 64.33 104 10.26 M 2.31 127.24 C 27.82 94.2 59.84 61.49 104 10.26 M 2.7 132.88 C 43.04 82.86 80.99 34.86 110.95 8.36 M 2.7 132.88 C 37.49 96.32 72.91 55.81 110.95 8.36 M 3.1 138.53 C 43.88 94.08 86.28 43.54 117.91 6.45 M 3.1 138.53 C 43.77 87.79 87.18 40.41 117.91 6.45 M 3.49 144.17 C 39.9 104.14 76.52 57.35 125.52 3.79 M 3.49 144.17 C 50.16 93.27 95.4 43.38 125.52 3.79 M 4.54 149.06 C 47.53 91.9 97.2 39.12 130.51 4.15 M 4.54 149.06 C 40.73 103.48 81.75 59.42 130.51 4.15 M 4.94 154.7 C 44.37 101.36 89.24 50.26 135.49 4.51 M 4.94 154.7 C 36.19 118.95 64.74 86.47 135.49 4.51 M 5.33 160.34 C 51.22 105.71 100 58.09 140.48 4.87 M 5.33 160.34 C 50.74 108.16 93.87 57.16 140.48 4.87 M 5.07 166.74 C 52.62 111.61 104.12 51.43 146.12 4.48 M 5.07 166.74 C 40.55 126.23 75.79 87.36 146.12 4.48 M 6.12 171.63 C 63.88 107.53 118.06 46.52 151.11 4.84 M 6.12 171.63 C 47.75 127.6 88.79 77.6 151.11 4.84 M 7.83 175.76 C 49.25 128.71 96.18 77.74 156.1 5.2 M 7.83 175.76 C 59 120.61 105.81 66.26 156.1 5.2 M 9.53 179.9 C 41.93 142.74 76.87 104.61 161.08 5.56 M 9.53 179.9 C 61.15 118.38 115.62 58.03 161.08 5.56 M 10.59 184.79 C 49.67 137.49 89.99 98.49 166.07 5.92 M 10.59 184.79 C 72.41 113.98 132.03 45.81 166.07 5.92 M 12.29 188.92 C 68.72 121.12 125.01 54.41 171.06 6.28 M 12.29 188.92 C 66.03 130.9 116.51 74.09 171.06 6.28 M 14 193.05 C 67.6 124.89 126.19 60.59 174.73 8.15 M 14 193.05 C 59.91 136.89 106.45 84.86 174.73 8.15 M 15.05 197.94 C 72.4 132.35 132 58.28 179.06 9.26 M 15.05 197.94 C 78.51 123.73 144.23 48.79 179.06 9.26 M 16.76 202.07 C 74.1 129.1 141.92 58.6 183.4 10.38 M 16.76 202.07 C 71.46 138.82 129.21 74.33 183.4 10.38 M 18.46 206.21 C 82.5 129.86 149.56 53.56 187.73 11.49 M 18.46 206.21 C 78.14 136.97 134.06 73.6 187.73 11.49 M 19.51 211.1 C 59.37 157.48 103.85 108.48 192.06 12.61 M 19.51 211.1 C 80.09 137.32 144.56 62.24 192.06 12.61 M 21.88 214.48 C 84.39 143.14 142.47 68.65 195.73 14.48 M 21.88 214.48 C 77.14 155.63 129.04 94.15 195.73 14.48 M 24.24 217.85 C 86.73 146.32 149.58 72.62 200.06 15.59 M 24.24 217.85 C 69.92 166.12 114.96 112.9 200.06 15.59 M 26.6 221.23 C 79.73 162.03 131.98 103.17 204.39 16.71 M 26.6 221.23 C 70.45 171.98 110.64 122.38 204.39 16.71 M 29.62 223.86 C 82.07 166.07 132.13 101.91 208.72 17.82 M 29.62 223.86 C 72.15 172.12 112.87 123.97 208.72 17.82 M 31.98 227.24 C 94.03 159.72 157.02 83.42 213.06 18.94 M 31.98 227.24 C 80.85 168.81 127.72 112.92 213.06 18.94 M 34.35 230.62 C 76.58 182.92 115.1 134.27 216.73 20.81 M 34.35 230.62 C 93.94 161.6 153.31 91.46 216.73 20.81 M 37.37 233.24 C 95.65 157.93 161.48 88.99 219.75 23.43 M 37.37 233.24 C 99.54 164.72 159.47 96.88 219.75 23.43 M 39.73 236.62 C 107.68 156.34 178.44 77.78 222.77 26.05 M 39.73 236.62 C 101.36 160.45 164.04 89.36 222.77 26.05 M 42.09 240 C 98.35 175.81 148.36 115.38 225.79 28.68 M 42.09 240 C 102.02 172.2 161.04 101.94 225.79 28.68 M 44.45 243.38 C 117.47 165.1 182.36 88.02 228.81 31.3 M 44.45 243.38 C 100.01 183.86 153.79 121.89 228.81 31.3 M 47.47 246 C 87.95 199.61 131.32 148.02 231.82 33.93 M 47.47 246 C 109.17 173.85 172.61 105.68 231.82 33.93 M 49.84 249.38 C 97.96 199.88 141.09 148.04 234.84 36.55 M 49.84 249.38 C 117.72 173.45 180.83 96.63 234.84 36.55 M 53.51 251.25 C 125.67 176.21 189.93 93.48 237.86 39.18 M 53.51 251.25 C 101.34 196.92 145.94 141.18 237.86 39.18 M 57.18 253.12 C 100.92 211.17 137.99 160.74 240.88 41.8 M 57.18 253.12 C 116.33 187.61 173.62 122.31 240.88 41.8 M 60.86 254.99 C 134.07 171.7 205.37 90.32 243.9 44.42 M 60.86 254.99 C 124.35 179.13 187.76 103.78 243.9 44.42 M 63.88 257.61 C 133.3 176.19 202 101.17 246.92 47.05 M 63.88 257.61 C 122.89 188.3 183.33 118.34 246.92 47.05 M 67.55 259.48 C 128.67 189.93 192.31 113.79 249.94 49.67 M 67.55 259.48 C 121.94 199.64 172.56 140.61 249.94 49.67 M 71.23 261.35 C 139.77 185.87 202.8 104.5 251.64 53.81 M 71.23 261.35 C 139.75 189 201.5 115.06 251.64 53.81 M 74.9 263.22 C 128.7 200.99 181.6 135.66 254.01 57.19 M 74.9 263.22 C 128.02 200.14 183.44 139.09 254.01 57.19 M 78.58 265.09 C 134.96 202.74 188.41 137.5 255.71 61.32 M 78.58 265.09 C 138.14 195.16 197.24 129.41 255.71 61.32 M 82.25 266.96 C 148.85 190.46 209.34 114.57 258.08 64.7 M 82.25 266.96 C 123.39 223.3 164.84 174.85 258.08 64.7 M 85.93 268.83 C 134.71 216.7 184.78 162.01 259.78 68.83 M 85.93 268.83 C 154.5 195.71 219.48 117.24 259.78 68.83 M 89.6 270.7 C 128.93 222.48 174.23 179.53 262.15 72.21 M 89.6 270.7 C 138.53 212.22 188.29 155.05 262.15 72.21 M 93.93 271.81 C 156.3 199.26 219.41 133.5 263.85 76.34 M 93.93 271.81 C 131.39 228.1 166.43 185.07 263.85 76.34 M 98.26 272.93 C 136.31 226.25 171.78 188.53 266.22 79.72 M 98.26 272.93 C 150.72 216.28 199.05 161.56 266.22 79.72 M 103.25 273.29 C 151.03 220.99 200.26 163.28 267.92 83.86 M 103.25 273.29 C 158.85 203.8 215.98 139.05 267.92 83.86 M 107.58 274.4 C 143.21 232.83 185.07 185.81 270.29 87.24 M 107.58 274.4 C 147.69 228.3 184.14 186.24 270.29 87.24 M 111.91 275.52 C 151.92 236.77 182.89 196.09 271.99 91.37 M 111.91 275.52 C 149.82 227.58 191.58 181.43 271.99 91.37 M 116.24 276.63 C 149.19 230.29 189.07 189.04 273.04 96.26 M 116.24 276.63 C 161.3 226.3 207.59 172.02 273.04 96.26 M 120.58 277.75 C 167.89 224.36 210.04 176.1 274.09 101.15 M 120.58 277.75 C 154.27 238.6 187.67 201.66 274.09 101.15 M 124.91 278.86 C 182.66 207.16 240.35 145.3 275.14 106.03 M 124.91 278.86 C 161.98 237.68 198.88 197.89 275.14 106.03 M 129.89 279.22 C 166.36 243.91 203.57 204.87 276.19 110.92 M 129.89 279.22 C 172.46 229.94 215.65 178.55 276.19 110.92 M 133.57 281.09 C 165.56 249.4 194.07 206.43 276.59 116.57 M 133.57 281.09 C 162.65 244.04 198.16 206.08 276.59 116.57 M 139.21 280.7 C 172.18 239.81 205.94 201.63 277.64 121.45 M 139.21 280.7 C 185.91 223.31 236.27 170.21 277.64 121.45 M 145.51 279.55 C 189.3 229.81 231.21 181.2 278.69 126.34 M 145.51 279.55 C 172.45 246.98 201.27 214.37 278.69 126.34 M 151.15 279.15 C 187.89 234.41 228.2 191.56 279.74 131.23 M 151.15 279.15 C 177.18 248.99 203.39 219.62 279.74 131.23 M 157.45 278.01 C 196.67 237.84 235.34 188.12 280.14 136.87 M 157.45 278.01 C 192.94 230.59 232.8 186.75 280.14 136.87 M 163.1 277.61 C 208.72 223.99 253.93 171.19 279.22 144.03 M 163.1 277.61 C 199.44 236.51 236.19 193.81 279.22 144.03 M 169.4 276.46 C 206.12 233.51 249.3 185.54 277.64 151.93 M 169.4 276.46 C 197.12 243.98 224.65 209.04 277.64 151.93 M 175.04 276.07 C 203.02 239.95 236.41 202.34 276.73 159.09 M 175.04 276.07 C 203.07 245.53 227.79 219.56 276.73 159.09 M 180.68 275.67 C 205.93 248.06 232.68 216.14 275.81 166.24 M 180.68 275.67 C 215.19 235.65 250.91 194.42 275.81 166.24 M 189.6 271.5 C 220.09 241.57 249 204.29 274.89 173.39 M 189.6 271.5 C 213.44 248.02 234.45 224.36 274.89 173.39 M 197.87 268.09 C 219.14 238.69 243.68 218.85 273.32 181.3 M 197.87 268.09 C 222.54 240.28 248.26 211.26 273.32 181.3 M 206.8 263.92 C 219.92 252.47 233.64 233.19 265.84 196 M 206.8 263.92 C 220.87 245.58 239.87 227.23 265.84 196 M 219 255.98 C 232 244.93 241.17 227.23 258.36 210.7 M 219 255.98 C 228.02 245.73 236.52 236.67 258.36 210.7" fill="none" stroke="#fff2cc" stroke-width="0.5" stroke-linejoin="round" stroke-linecap="round" stroke-miterlimit="10" pointer-events="all"/><path d="M 168.79 4.9 C 183.62 5.24 200.49 11.12 213.72 18.35 C 226.95 25.59 238.7 36.38 248.18 48.29 C 257.66 60.21 265.39 75.13 270.58 89.83 C 275.78 104.52 279 121.26 279.37 136.48 C 279.73 151.71 277.26 167.06 272.76 181.2 C 268.27 195.34 261.41 208.92 252.42 221.34 C 243.43 233.76 231.13 247.01 218.82 255.73 C 206.51 264.44 193.12 269.65 178.54 273.64 C 163.97 277.63 146.25 280.2 131.38 279.68 C 116.51 279.15 103.3 275.88 89.34 270.51 C 75.38 265.14 59.26 257.06 47.63 247.44 C 36.01 237.82 26.91 226.34 19.61 212.77 C 12.31 199.2 7.23 181.48 3.82 166.03 C 0.42 150.59 -2.89 134.91 -0.83 120.09 C 1.23 105.26 9.3 90.36 16.21 77.1 C 23.11 63.83 29.84 50.85 40.62 40.49 C 51.4 30.14 66.97 21.29 80.89 14.96 C 94.8 8.63 105.82 3.39 124.11 2.5 C 142.4 1.6 175.96 6.07 190.64 9.6 C 205.32 13.13 212.54 21.75 212.2 23.68 M 125.26 2.46 C 139.99 -1.83 157.77 -0.64 172 2.03 C 186.23 4.7 197.63 9.85 210.65 18.48 C 223.67 27.1 240.45 42.08 250.1 53.77 C 259.76 65.47 263.46 74.91 268.56 88.64 C 273.67 102.37 280.03 120.68 280.75 136.15 C 281.46 151.62 277.74 166.89 272.87 181.45 C 268 196.02 260.29 210.94 251.54 223.55 C 242.79 236.15 232.21 248.99 220.39 257.08 C 208.57 265.17 195.47 268.66 180.62 272.06 C 165.78 275.47 146.81 277.7 131.34 277.51 C 115.87 277.33 102.08 276.58 87.81 270.93 C 73.54 265.28 57.46 253.8 45.7 243.6 C 33.95 233.39 24.62 222.09 17.29 209.72 C 9.96 197.35 4.03 184.44 1.73 169.4 C -0.57 154.35 1.3 134.99 3.49 119.44 C 5.69 103.9 8.67 89.72 14.91 76.13 C 21.14 62.55 29.74 48.25 40.9 37.92 C 52.07 27.59 68.24 20.48 81.92 14.15 C 95.6 7.81 115.77 1.4 122.98 -0.11 C 130.18 -1.61 124.61 2.32 125.16 5.1" fill="none" stroke="#d6b656" stroke-linejoin="round" stroke-linecap="round" stroke-miterlimit="10" pointer-events="all"/></g><g><path d="M 148 147.16 Q 169.36 160.06 190.72 147.16 Q 212.09 134.27 233.45 147.16 L 233.45 147.16 Q 212.09 134.27 190.72 147.16 Q 169.36 160.06 148 147.16 L 148 147.16 Z" fill="none" stroke="none" transform="rotate(-60,190.72,147.16)" pointer-events="all"/><path d="M 148 147.17 C 167.29 158.79 180.33 156.09 190.73 147.17 C 210.3 136.84 223.91 138.21 233.45 147.17 C 233.45 147.17 233.45 147.17 233.45 147.17 C 220.09 139.36 205.93 142.18 190.73 147.17 C 175.37 153.55 163.69 157.71 148 147.17 C 148 147.17 148 147.17 148 147.17 C 148 147.17 148 147.17 148 147.17" fill="rgb(255, 255, 255)" stroke="none" transform="rotate(-60,190.72,147.16)" pointer-events="all"/><path d="M 148 147.17 C 166.2 155.26 172.79 152.18 190.73 147.17 M 148 147.17 C 160.84 158.94 177.88 157.58 190.73 147.17 M 190.73 147.17 C 208.92 135.91 220.19 141.38 233.45 147.17 M 190.73 147.17 C 203.92 136.13 220.3 134.56 233.45 147.17 M 233.45 147.17 C 233.45 147.17 233.45 147.17 233.45 147.17 M 233.45 147.17 C 233.45 147.17 233.45 147.17 233.45 147.17 M 233.45 147.17 C 222.46 138.7 203.18 135.96 190.73 147.17 M 233.45 147.17 C 221.33 136.42 207.28 134.46 190.73 147.17 M 190.73 147.17 C 180.43 154.67 163.7 155.36 148 147.17 M 190.73 147.17 C 176.46 154.39 166.51 158.09 148 147.17 M 148 147.17 C 148 147.17 148 147.17 148 147.17 M 148 147.17 C 148 147.17 148 147.17 148 147.17 M 148 147.17 C 148 147.17 148 147.17 148 147.17 M 148 147.17 C 148 147.17 148 147.17 148 147.17" fill="none" stroke="rgb(0, 0, 0)" stroke-linejoin="round" stroke-linecap="round" stroke-miterlimit="10" transform="rotate(-60,190.72,147.16)" pointer-events="all"/></g><g><path d="M 150 148.16 Q 171.36 161.06 192.72 148.16 Q 214.09 135.27 235.45 148.16 L 235.45 148.16 Q 214.09 135.27 192.72 148.16 Q 171.36 161.06 150 148.16 L 150 148.16 Z" fill="none" stroke="none" transform="rotate(60,192.72,148.16)" pointer-events="all"/><path d="M 150 148.17 C 165.77 157.95 183.31 151.57 192.73 148.17 C 210.85 142.73 216.85 144.81 235.45 148.17 C 235.45 148.17 235.45 148.17 235.45 148.17 C 219.11 144.1 205.92 137.65 192.73 148.17 C 176.45 155.61 163.88 151.97 150 148.17 C 150 148.17 150 148.17 150 148.17 C 150 148.17 150 148.17 150 148.17" fill="rgb(255, 255, 255)" stroke="none" transform="rotate(60,192.72,148.16)" pointer-events="all"/><path d="M 150 148.17 C 163.67 155.85 178.44 153.43 192.73 148.17 M 150 148.17 C 165.16 155.96 175.46 154.09 192.73 148.17 M 192.73 148.17 C 206.03 137.78 218.96 138.17 235.45 148.17 M 192.73 148.17 C 207.3 143.37 217.79 138.48 235.45 148.17 M 235.45 148.17 C 235.45 148.17 235.45 148.17 235.45 148.17 M 235.45 148.17 C 235.45 148.17 235.45 148.17 235.45 148.17 M 235.45 148.17 C 218.39 140.92 204.58 141.05 192.73 148.17 M 235.45 148.17 C 222.72 137.87 209.25 138.56 192.73 148.17 M 192.73 148.17 C 177.23 158.96 161.01 155.19 150 148.17 M 192.73 148.17 C 178.11 158.78 166.61 157.79 150 148.17 M 150 148.17 C 150 148.17 150 148.17 150 148.17 M 150 148.17 C 150 148.17 150 148.17 150 148.17 M 150 148.17 C 150 148.17 150 148.17 150 148.17 M 150 148.17 C 150 148.17 150 148.17 150 148.17" fill="none" stroke="rgb(0, 0, 0)" stroke-linejoin="round" stroke-linecap="round" stroke-miterlimit="10" transform="rotate(60,192.72,148.16)" pointer-events="all"/></g><g><path d="M 35 147.16 Q 56.36 160.06 77.72 147.16 Q 99.09 134.27 120.45 147.16 L 120.45 147.16 Q 99.09 134.27 77.72 147.16 Q 56.36 160.06 35 147.16 L 35 147.16 Z" fill="none" stroke="none" transform="rotate(-60,77.72,147.16)" pointer-events="all"/><path d="M 35 147.17 C 51.78 160.27 61.56 157.71 77.73 147.17 C 91.54 134.2 104.29 143.79 120.45 147.17 C 120.45 147.17 120.45 147.17 120.45 147.17 C 100.87 137.76 89.86 138.07 77.73 147.17 C 62.76 159.79 46.26 153.73 35 147.17 C 35 147.17 35 147.17 35 147.17 C 35 147.17 35 147.17 35 147.17" fill="rgb(255, 255, 255)" stroke="none" transform="rotate(-60,77.72,147.16)" pointer-events="all"/><path d="M 35 147.17 C 48.67 156.21 65.06 155.86 77.73 147.17 M 35 147.17 C 45.39 153.49 65.81 159.72 77.73 147.17 M 77.73 147.17 C 92.11 141.61 105.53 138.88 120.45 147.17 M 77.73 147.17 C 90.2 137.15 106.02 139.92 120.45 147.17 M 120.45 147.17 C 120.45 147.17 120.45 147.17 120.45 147.17 M 120.45 147.17 C 120.45 147.17 120.45 147.17 120.45 147.17 M 120.45 147.17 C 104.83 137.48 94.1 137.52 77.73 147.17 M 120.45 147.17 C 110.62 140.63 87.78 139.41 77.73 147.17 M 77.73 147.17 C 64.17 159.08 48.14 154.41 35 147.17 M 77.73 147.17 C 66.85 151.82 53.05 159.19 35 147.17 M 35 147.17 C 35 147.17 35 147.17 35 147.17 M 35 147.17 C 35 147.17 35 147.17 35 147.17 M 35 147.17 C 35 147.17 35 147.17 35 147.17 M 35 147.17 C 35 147.17 35 147.17 35 147.17" fill="none" stroke="rgb(0, 0, 0)" stroke-linejoin="round" stroke-linecap="round" stroke-miterlimit="10" transform="rotate(-60,77.72,147.16)" pointer-events="all"/></g><g><path d="M 37 148.16 Q 58.36 161.06 79.72 148.16 Q 101.09 135.27 122.45 148.16 L 122.45 148.16 Q 101.09 135.27 79.72 148.16 Q 58.36 161.06 37 148.16 L 37 148.16 Z" fill="none" stroke="none" transform="rotate(60,79.72,148.16)" pointer-events="all"/><path d="M 37 148.17 C 48.68 157.32 65.78 156.68 79.73 148.17 C 91.39 137.03 113.11 144.78 122.45 148.17 C 122.45 148.17 122.45 148.17 122.45 148.17 C 106.85 136.09 91.33 134.18 79.73 148.17 C 65.41 157.78 46.95 156.11 37 148.17 C 37 148.17 37 148.17 37 148.17 C 37 148.17 37 148.17 37 148.17" fill="rgb(255, 255, 255)" stroke="none" transform="rotate(60,79.72,148.16)" pointer-events="all"/><path d="M 37 148.17 C 50.67 157.89 63.87 154.57 79.73 148.17 M 37 148.17 C 54.21 158.36 65.89 154.83 79.73 148.17 M 79.73 148.17 C 94.65 137.02 104.31 140.73 122.45 148.17 M 79.73 148.17 C 95.75 135.53 109.63 137.54 122.45 148.17 M 122.45 148.17 C 122.45 148.17 122.45 148.17 122.45 148.17 M 122.45 148.17 C 122.45 148.17 122.45 148.17 122.45 148.17 M 122.45 148.17 C 107.54 137.26 90.36 141.25 79.73 148.17 M 122.45 148.17 C 109.47 143.51 95.75 141.33 79.73 148.17 M 79.73 148.17 C 63.14 160.64 51.2 159.52 37 148.17 M 79.73 148.17 C 66.12 159.04 55.77 156.79 37 148.17 M 37 148.17 C 37 148.17 37 148.17 37 148.17 M 37 148.17 C 37 148.17 37 148.17 37 148.17 M 37 148.17 C 37 148.17 37 148.17 37 148.17 M 37 148.17 C 37 148.17 37 148.17 37 148.17" fill="none" stroke="rgb(0, 0, 0)" stroke-linejoin="round" stroke-linecap="round" stroke-miterlimit="10" transform="rotate(60,79.72,148.16)" pointer-events="all"/></g><g><path d="M 72.72 60 Q 82.72 60 82.72 92.5 Q 82.72 125 72.72 125 Q 77.72 92.5 72.72 60 Z" fill="none" stroke="none" transform="rotate(-93,77.72,92.5)" pointer-events="all"/><path d="M 72.72 60 C 83.06 55.01 84.15 69.24 82.72 92.5 C 80.17 113.31 74.58 120.9 72.72 125 C 73.05 102.26 81.57 76.77 72.72 60 C 72.72 60 72.72 60 72.72 60" fill="rgb(255, 255, 255)" stroke="none" transform="rotate(-93,77.72,92.5)" pointer-events="all"/><path d="M 72.72 60 C 78.82 61.81 85.92 74.36 82.72 92.5 M 72.72 60 C 79.97 56.26 81.2 72.21 82.72 92.5 M 82.72 92.5 C 83.94 114.03 80.27 127.02 72.72 125 M 82.72 92.5 C 78.85 116.71 82.43 128.78 72.72 125 M 72.72 125 C 77.37 102.69 76.32 80.48 72.72 60 M 72.72 125 C 77.59 102.58 77.87 85 72.72 60 M 72.72 60 C 72.72 60 72.72 60 72.72 60 M 72.72 60 C 72.72 60 72.72 60 72.72 60" fill="none" stroke="rgb(0, 0, 0)" stroke-linejoin="round" stroke-linecap="round" stroke-miterlimit="10" transform="rotate(-93,77.72,92.5)" pointer-events="all"/></g><g><path d="M 187.72 60 Q 197.72 60 197.72 92.5 Q 197.72 125 187.72 125 Q 192.72 92.5 187.72 60 Z" fill="none" stroke="none" transform="rotate(-90,192.72,92.5)" pointer-events="all"/><path d="M 187.72 60 C 194 58.59 196.25 65.93 197.72 92.5 C 203.26 117.02 191.41 121.85 187.72 125 C 191.99 103.63 194.73 80.13 187.72 60 C 187.72 60 187.72 60 187.72 60" fill="rgb(255, 255, 255)" stroke="none" transform="rotate(-90,192.72,92.5)" pointer-events="all"/><path d="M 187.72 60 C 192.67 56.46 195.19 73.71 197.72 92.5 M 187.72 60 C 191.3 64.33 195.66 73.43 197.72 92.5 M 197.72 92.5 C 194.58 110.56 194.23 122.65 187.72 125 M 197.72 92.5 C 194.31 115.81 193.39 122.17 187.72 125 M 187.72 125 C 194.23 100.04 189.09 82.77 187.72 60 M 187.72 125 C 193.24 101.96 195.42 79.73 187.72 60 M 187.72 60 C 187.72 60 187.72 60 187.72 60 M 187.72 60 C 187.72 60 187.72 60 187.72 60" fill="none" stroke="rgb(0, 0, 0)" stroke-linejoin="round" stroke-linecap="round" stroke-miterlimit="10" transform="rotate(-90,192.72,92.5)" pointer-events="all"/></g><g><path d="M 94 217.16 Q 115.36 230.06 136.72 217.16 Q 158.09 204.27 179.45 217.16 L 179.45 217.16 Q 158.09 204.27 136.72 217.16 Q 115.36 230.06 94 217.16 L 94 217.16 Z" fill="none" stroke="none" transform="rotate(-60,136.72,217.16)" pointer-events="all"/><path d="M 94 217.17 C 108.55 229.54 128 230.07 136.73 217.17 C 150.16 209.68 165.06 213.72 179.45 217.17 C 179.45 217.17 179.45 217.17 179.45 217.17 C 168.72 212.83 147.42 213.32 136.73 217.17 C 126.41 226.94 108.6 225.95 94 217.17 C 94 217.17 94 217.17 94 217.17 C 94 217.17 94 217.17 94 217.17" fill="rgb(255, 255, 255)" stroke="none" transform="rotate(-60,136.72,217.16)" pointer-events="all"/><path d="M 94 217.17 C 106.52 224.27 126.39 221.78 136.73 217.17 M 94 217.17 C 107.2 223.29 123.85 229.09 136.73 217.17 M 136.73 217.17 C 149.45 212.2 163.41 208.79 179.45 217.17 M 136.73 217.17 C 149.01 211.57 169.06 204.79 179.45 217.17 M 179.45 217.17 C 179.45 217.17 179.45 217.17 179.45 217.17 M 179.45 217.17 C 179.45 217.17 179.45 217.17 179.45 217.17 M 179.45 217.17 C 162.41 212.16 152.13 209.88 136.73 217.17 M 179.45 217.17 C 161.79 205.75 148.73 205.95 136.73 217.17 M 136.73 217.17 C 121.11 226.44 110.37 226.59 94 217.17 M 136.73 217.17 C 118.85 228.36 107.96 222.18 94 217.17 M 94 217.17 C 94 217.17 94 217.17 94 217.17 M 94 217.17 C 94 217.17 94 217.17 94 217.17 M 94 217.17 C 94 217.17 94 217.17 94 217.17 M 94 217.17 C 94 217.17 94 217.17 94 217.17" fill="none" stroke="rgb(0, 0, 0)" stroke-linejoin="round" stroke-linecap="round" stroke-miterlimit="10" transform="rotate(-60,136.72,217.16)" pointer-events="all"/></g><g><path d="M 96 218.16 Q 117.36 231.06 138.72 218.16 Q 160.09 205.27 181.45 218.16 L 181.45 218.16 Q 160.09 205.27 138.72 218.16 Q 117.36 231.06 96 218.16 L 96 218.16 Z" fill="none" stroke="none" transform="rotate(60,138.72,218.16)" pointer-events="all"/><path d="M 96 218.17 C 105.46 226.6 121.02 229.04 138.73 218.17 C 150.01 212.52 162.68 214.71 181.45 218.17 C 181.45 218.17 181.45 218.17 181.45 218.17 C 163.5 211.15 148.89 209.43 138.73 218.17 C 129.06 224.93 109.29 228.33 96 218.17 C 96 218.17 96 218.17 96 218.17 C 96 218.17 96 218.17 96 218.17" fill="rgb(255, 255, 255)" stroke="none" transform="rotate(60,138.72,218.16)" pointer-events="all"/><path d="M 96 218.17 C 108.52 225.95 125.2 228.5 138.73 218.17 M 96 218.17 C 106.82 228.15 123.92 224.2 138.73 218.17 M 138.73 218.17 C 151.99 207.61 170.2 210.64 181.45 218.17 M 138.73 218.17 C 154.56 209.96 163.48 211.6 181.45 218.17 M 181.45 218.17 C 181.45 218.17 181.45 218.17 181.45 218.17 M 181.45 218.17 C 181.45 218.17 181.45 218.17 181.45 218.17 M 181.45 218.17 C 165.13 211.94 156.39 205.62 138.73 218.17 M 181.45 218.17 C 169.84 208.63 156.7 207.87 138.73 218.17 M 138.73 218.17 C 128.08 228 113.44 223.7 96 218.17 M 138.73 218.17 C 127.32 226.38 110.68 228.98 96 218.17 M 96 218.17 C 96 218.17 96 218.17 96 218.17 M 96 218.17 C 96 218.17 96 218.17 96 218.17 M 96 218.17 C 96 218.17 96 218.17 96 218.17 M 96 218.17 C 96 218.17 96 218.17 96 218.17" fill="none" stroke="rgb(0, 0, 0)" stroke-linejoin="round" stroke-linecap="round" stroke-miterlimit="10" transform="rotate(60,138.72,218.16)" pointer-events="all"/></g><g><path d="M 95 47.16 Q 116.36 60.06 137.72 47.16 Q 159.09 34.27 180.45 47.16 L 180.45 47.16 Q 159.09 34.27 137.72 47.16 Q 116.36 60.06 95 47.16 L 95 47.16 Z" fill="none" stroke="none" transform="rotate(-60,137.72,47.16)" pointer-events="all"/><path d="M 95.27 46.86 C 95.27 46.86 95.27 46.86 95.27 46.86 M 95.27 46.86 C 95.27 46.86 95.27 46.86 95.27 46.86 M 98.94 48.73 C 98.94 48.73 98.94 48.73 98.94 48.73 M 98.94 48.73 C 98.94 48.73 98.94 48.73 98.94 48.73 M 102.62 50.6 C 102.92 50.47 102.91 50.27 103.28 49.84 M 102.62 50.6 C 102.96 50.35 103.19 50.11 103.28 49.84 M 106.29 52.47 C 106.68 52.28 106.71 51.96 106.95 51.71 M 106.29 52.47 C 106.48 52.24 106.72 51.95 106.95 51.71 M 111.28 52.83 C 111.28 52.83 111.28 52.83 111.28 52.83 M 111.28 52.83 C 111.28 52.83 111.28 52.83 111.28 52.83 M 115.61 53.94 C 115.92 53.61 115.78 53.66 116.27 53.19 M 115.61 53.94 C 115.84 53.84 115.91 53.61 116.27 53.19 M 121.26 53.55 C 121.26 53.55 121.26 53.55 121.26 53.55 M 121.26 53.55 C 121.26 53.55 121.26 53.55 121.26 53.55 M 128.21 51.64 C 128.21 51.64 128.21 51.64 128.21 51.64 M 128.21 51.64 C 128.21 51.64 128.21 51.64 128.21 51.64 M 136.48 48.23 C 136.48 48.23 136.48 48.23 136.48 48.23 M 136.48 48.23 C 136.48 48.23 136.48 48.23 136.48 48.23 M 144.75 44.82 C 144.75 44.82 144.75 44.82 144.75 44.82 M 144.75 44.82 C 144.75 44.82 144.75 44.82 144.75 44.82 M 152.36 42.16 C 152.36 42.16 152.36 42.16 152.36 42.16 M 152.36 42.16 C 152.36 42.16 152.36 42.16 152.36 42.16 M 158 41.76 C 158 41.76 158 41.76 158 41.76 M 158 41.76 C 158 41.76 158 41.76 158 41.76 M 162.99 42.12 C 162.99 42.12 162.99 42.12 162.99 42.12 M 162.99 42.12 C 162.99 42.12 162.99 42.12 162.99 42.12 M 167.97 42.48 C 167.97 42.48 167.97 42.48 167.97 42.48 M 167.97 42.48 C 167.97 42.48 167.97 42.48 167.97 42.48 M 172.3 43.6 C 172.3 43.6 172.3 43.6 172.3 43.6 M 172.3 43.6 C 172.3 43.6 172.3 43.6 172.3 43.6 M 175.98 45.47 C 175.98 45.47 175.98 45.47 175.98 45.47 M 175.98 45.47 C 175.98 45.47 175.98 45.47 175.98 45.47 M 179.65 47.34 C 179.65 47.34 179.65 47.34 179.65 47.34 M 179.65 47.34 C 179.65 47.34 179.65 47.34 179.65 47.34" fill="none" stroke="#e51400" stroke-width="0.5" stroke-linejoin="round" stroke-linecap="round" stroke-miterlimit="10" transform="rotate(-60,137.72,47.16)" pointer-events="all"/><path d="M 95 47.17 C 107.52 55.63 121.01 55.21 137.73 47.17 M 95 47.17 C 112.64 51.82 121 56.51 137.73 47.17 M 137.73 47.17 C 151.53 39.03 165.98 40.49 180.45 47.17 M 137.73 47.17 C 147.91 36.34 164.09 37.22 180.45 47.17 M 180.45 47.17 C 180.45 47.17 180.45 47.17 180.45 47.17 M 180.45 47.17 C 180.45 47.17 180.45 47.17 180.45 47.17 M 180.45 47.17 C 164.85 39.73 149.65 37.35 137.73 47.17 M 180.45 47.17 C 165.69 39.51 152.47 37.79 137.73 47.17 M 137.73 47.17 C 124.05 57.56 105.5 56.81 95 47.17 M 137.73 47.17 C 123.59 52.4 110.4 54.58 95 47.17 M 95 47.17 C 95 47.17 95 47.17 95 47.17 M 95 47.17 C 95 47.17 95 47.17 95 47.17 M 95 47.17 C 95 47.17 95 47.17 95 47.17 M 95 47.17 C 95 47.17 95 47.17 95 47.17" fill="none" stroke="#b20000" stroke-linejoin="round" stroke-linecap="round" stroke-miterlimit="10" transform="rotate(-60,137.72,47.16)" pointer-events="all"/></g><g><path d="M 97 48.16 Q 118.36 61.06 139.72 48.16 Q 161.09 35.27 182.45 48.16 L 182.45 48.16 Q 161.09 35.27 139.72 48.16 Q 118.36 61.06 97 48.16 L 97 48.16 Z" fill="none" stroke="none" transform="rotate(60,139.72,48.16)" pointer-events="all"/><path d="M 97.27 47.86 C 97.27 47.86 97.27 47.86 97.27 47.86 M 97.27 47.86 C 97.27 47.86 97.27 47.86 97.27 47.86 M 100.94 49.73 C 100.94 49.73 100.94 49.73 100.94 49.73 M 100.94 49.73 C 100.94 49.73 100.94 49.73 100.94 49.73 M 104.62 51.6 C 104.66 51.38 104.97 51.2 105.28 50.84 M 104.62 51.6 C 104.81 51.31 105.05 51.09 105.28 50.84 M 108.29 53.47 C 108.65 53.34 108.89 53.04 108.95 52.71 M 108.29 53.47 C 108.49 53.16 108.85 52.95 108.95 52.71 M 113.28 53.83 C 113.28 53.83 113.28 53.83 113.28 53.83 M 113.28 53.83 C 113.28 53.83 113.28 53.83 113.28 53.83 M 117.61 54.94 C 117.79 54.57 118.15 54.35 118.27 54.19 M 117.61 54.94 C 117.86 54.75 117.99 54.64 118.27 54.19 M 123.26 54.55 C 123.26 54.55 123.26 54.55 123.26 54.55 M 123.26 54.55 C 123.26 54.55 123.26 54.55 123.26 54.55 M 130.21 52.64 C 130.21 52.64 130.21 52.64 130.21 52.64 M 130.21 52.64 C 130.21 52.64 130.21 52.64 130.21 52.64 M 138.48 49.23 C 138.48 49.23 138.48 49.23 138.48 49.23 M 138.48 49.23 C 138.48 49.23 138.48 49.23 138.48 49.23 M 146.75 45.82 C 146.75 45.82 146.75 45.82 146.75 45.82 M 146.75 45.82 C 146.75 45.82 146.75 45.82 146.75 45.82 M 154.36 43.16 C 154.36 43.16 154.36 43.16 154.36 43.16 M 154.36 43.16 C 154.36 43.16 154.36 43.16 154.36 43.16 M 160 42.76 C 160 42.76 160 42.76 160 42.76 M 160 42.76 C 160 42.76 160 42.76 160 42.76 M 164.99 43.12 C 164.99 43.12 164.99 43.12 164.99 43.12 M 164.99 43.12 C 164.99 43.12 164.99 43.12 164.99 43.12 M 169.97 43.48 C 169.97 43.48 169.97 43.48 169.97 43.48 M 169.97 43.48 C 169.97 43.48 169.97 43.48 169.97 43.48 M 174.3 44.6 C 174.3 44.6 174.3 44.6 174.3 44.6 M 174.3 44.6 C 174.3 44.6 174.3 44.6 174.3 44.6 M 177.98 46.47 C 177.98 46.47 177.98 46.47 177.98 46.47 M 177.98 46.47 C 177.98 46.47 177.98 46.47 177.98 46.47 M 181.65 48.34 C 181.65 48.34 181.65 48.34 181.65 48.34 M 181.65 48.34 C 181.65 48.34 181.65 48.34 181.65 48.34" fill="none" stroke="#e51400" stroke-width="0.5" stroke-linejoin="round" stroke-linecap="round" stroke-miterlimit="10" transform="rotate(60,139.72,48.16)" pointer-events="all"/><path d="M 97 48.17 C 109.52 57.31 127.82 53.93 139.73 48.17 M 97 48.17 C 112.26 56.68 121.07 60.83 139.73 48.17 M 139.73 48.17 C 154.07 42.44 164.77 42.35 182.45 48.17 M 139.73 48.17 C 153.46 43.93 167.71 44.04 182.45 48.17 M 182.45 48.17 C 182.45 48.17 182.45 48.17 182.45 48.17 M 182.45 48.17 C 182.45 48.17 182.45 48.17 182.45 48.17 M 182.45 48.17 C 167.57 39.51 153.91 41.09 139.73 48.17 M 182.45 48.17 C 164.53 42.39 151.24 39.72 139.73 48.17 M 139.73 48.17 C 123.02 59.12 108.56 53.92 97 48.17 M 139.73 48.17 C 122.86 59.63 113.12 52.18 97 48.17 M 97 48.17 C 97 48.17 97 48.17 97 48.17 M 97 48.17 C 97 48.17 97 48.17 97 48.17 M 97 48.17 C 97 48.17 97 48.17 97 48.17 M 97 48.17 C 97 48.17 97 48.17 97 48.17" fill="none" stroke="#b20000" stroke-linejoin="round" stroke-linecap="round" stroke-miterlimit="10" transform="rotate(60,139.72,48.16)" pointer-events="all"/></g></g></svg>